<svg width="1560" height="15188" viewBox="0 0 1560 15188" fill="none" xmlns="http://www.w3.org/2000/svg">
<path d="M239 -22C590.333 157.333 1703 -22 1415 2056C1190 3679.47 -23 2822 35 3446C71.5884 3839.64 1077 3860 1119 4254C1174.72 4776.66 1913.5 5160.5 1337 5458C841.367 5713.77 416 5416 339 5723.5C262 6031 225 6670 403 6928C530.626 7112.99 1009 7129 954 7447.5C899 7766 229.5 8424.5 130.5 8435.5C31.4999 8446.5 -363.5 9830 1042 9874C2166.4 9909.2 1041.83 10789 339 11224.5C196.167 11579.5 90.6 12535.5 811 13519.5C1531.4 14503.5 1025.5 14964.5 601 15184" stroke="#A1A5FF" stroke-width="7" stroke-linecap="round"/>
</svg>
