<svg width="51" height="52" viewBox="0 0 51 52" fill="none" xmlns="http://www.w3.org/2000/svg">
<g id="Group 441">
<g id="Group 439">
<path id="Rectangle 34624193" d="M50.1173 25.5353C50.3287 25.7466 50.3287 26.0893 50.1173 26.3006L44.5687 31.8492C41.293 35.125 35.982 35.125 32.7062 31.8492C29.4305 28.5735 29.4305 23.2625 32.7062 19.9867C35.982 16.711 41.293 16.711 44.5687 19.9867L50.1173 25.5353Z" fill="#EAEAEA"/>
<path id="Rectangle 34624192" d="M31.2636 6.68104C34.5393 9.95679 34.5393 15.2678 31.2636 18.5436C27.9878 21.8193 22.6768 21.8193 19.401 18.5436C16.1253 15.2678 16.1253 9.95679 19.401 6.68105L24.9496 1.13245C25.161 0.921109 25.5036 0.921108 25.715 1.13245L31.2636 6.68104Z" fill="#CBC5EA"/>
<path id="Rectangle 34624194" d="M31.0232 33.372C34.2546 36.6035 34.2546 41.8428 31.0232 45.0743L25.3892 50.7082C25.1808 50.9167 24.8427 50.9167 24.6343 50.7082L19.2408 45.3147C15.965 42.039 16.0054 36.6876 19.2811 33.4118C22.5126 30.1804 27.7917 30.1406 31.0232 33.372Z" fill="#73628A"/>
<g id="Group 435">
<path id="Rectangle 34624195" d="M17.7842 20.2529C21.0446 23.5132 21.0446 28.7993 17.7842 32.0596C14.5239 35.32 9.23779 35.32 5.97744 32.0596L0.454912 26.5371C0.244566 26.3268 0.244566 25.9857 0.454912 25.7754L5.97744 20.2529C9.2378 16.9925 14.5239 16.9925 17.7842 20.2529Z" fill="#313D5A"/>
</g>
</g>
<g id="Group 440">
<path id="Rectangle 34624192_2" d="M41.8237 16.4665C41.8237 20.395 38.6391 23.5796 34.7106 23.5796C30.7822 23.5796 27.5975 20.3949 27.5975 16.4665C27.5975 12.538 30.7822 9.3534 34.7106 9.3534L41.8237 9.3534L41.8237 16.4665Z" stroke="#CBC5EA" stroke-width="3"/>
<path id="Rectangle 34624193_2" d="M41.8237 35.4665L41.8237 42.5796L34.7106 42.5796C30.7822 42.5796 27.5975 39.3949 27.5975 35.4665C27.5975 31.538 30.7822 28.3534 34.7106 28.3534C38.6391 28.3534 41.8237 31.538 41.8237 35.4665Z" stroke="#EAEAEA" stroke-width="3"/>
<path id="Rectangle 34624194_2" d="M22.9281 35.465C22.9281 39.3935 19.7435 42.5781 15.815 42.5781L8.70191 42.5781L8.70191 35.465C8.70191 31.5366 11.8866 28.3519 15.815 28.3519C19.7435 28.3519 22.9281 31.5366 22.9281 35.465Z" stroke="#73628A" stroke-width="3"/>
<path id="Rectangle 34624195_2" d="M22.9792 16.4665C22.9792 20.3949 19.7946 23.5796 15.8662 23.5796C11.9377 23.5796 8.75306 20.3949 8.75306 16.4665L8.75306 9.3534L15.8662 9.3534C19.7946 9.3534 22.9792 12.538 22.9792 16.4665Z" stroke="#313D5A" stroke-width="3"/>
</g>
</g>
</svg>
