<svg width="1278" height="777" viewBox="0 0 1278 777" fill="none" xmlns="http://www.w3.org/2000/svg">
<path fill-rule="evenodd" clip-rule="evenodd" d="M1172.92 711.524C1172.96 727.971 1159.64 741.341 1143.16 741.389L134.81 744.302C118.326 744.35 104.925 731.057 104.878 714.61L102.908 32.8331C102.86 16.3867 116.184 3.01629 132.668 2.96866L1141.01 0.0548473C1157.49 0.00722373 1170.9 13.3004 1170.95 29.7468L1172.92 711.524ZM125.876 35.9739C125.863 31.4196 129.552 27.7169 134.117 27.7037L574.005 26.4327L574.04 38.344C574.053 42.8984 577.764 46.5797 582.329 46.5665L693.449 46.2454C698.014 46.2322 701.703 42.5295 701.69 37.9752L701.656 26.0638L1139.71 24.7981C1144.27 24.7849 1147.98 28.4662 1148 33.0205L1149.89 689.063C1149.91 693.617 1146.22 697.32 1141.65 697.333L136.06 700.238C131.495 700.252 127.784 696.57 127.771 692.016L125.876 35.9739Z" fill="#7C8B9D"/>
<path d="M1141.31 772.468L151.136 776.385C101.545 776.528 52.0953 772.397 3.69103 761.636C1.71925 761.197 0.314851 759.455 0.309027 757.439L0.25467 738.627C0.251618 737.571 1.10716 736.712 2.16554 736.709L1275.83 731.973C1276.89 731.97 1277.75 732.824 1277.75 733.88L1277.81 753.639C1277.82 755.923 1276.2 757.893 1273.96 758.34L1266.26 759.874C1219.11 769.278 1189.4 772.329 1141.31 772.468Z" fill="#5F6D7E"/>
<path d="M537.295 751.787L719.031 751.261C729.152 751.232 737.335 743.493 737.308 733.976L518.919 734.788C518.947 744.305 527.174 751.816 537.295 751.787Z" fill="#7C8B9D"/>
<path fill-rule="evenodd" clip-rule="evenodd" d="M737.39 735.888L518.924 736.519L518.919 734.788L737.384 733.976L737.39 735.888Z" fill="#5F6D7E"/>
<path d="M605.819 33.6764C605.827 36.2071 603.776 38.2645 601.24 38.2718C598.704 38.2792 596.642 36.2336 596.634 33.703C596.627 31.1723 598.677 29.1149 601.214 29.1076C603.75 29.1003 605.812 31.1458 605.819 33.6764Z" fill="#5F6D7E"/>
<path d="M617.708 33.6421C617.702 31.6176 619.342 29.9716 621.371 29.9658L672.979 29.8166C675.008 29.8108 676.657 31.4472 676.663 33.4717C676.669 35.4962 675.029 37.1422 673 37.1481L621.393 37.2972C619.363 37.303 617.714 35.6666 617.708 33.6421Z" fill="#5F6D7E"/>
</svg>
