<svg width="40" height="40" viewBox="0 0 40 40" fill="none" xmlns="http://www.w3.org/2000/svg">
<g id="photo Fill">
<g id="Icon">
<path d="M20.0001 12.5C20.0001 10.1988 21.8656 8.33335 24.1667 8.33335C26.4679 8.33335 28.3334 10.1988 28.3334 12.5C28.3334 14.8012 26.4679 16.6667 24.1667 16.6667C21.8656 16.6667 20.0001 14.8012 20.0001 12.5Z" fill="#7C8B9D"/>
<path fill-rule="evenodd" clip-rule="evenodd" d="M16.5938 1.66669C14.3221 1.66667 12.5154 1.66666 11.0577 1.78576C9.56504 1.90771 8.29226 2.16282 7.12684 2.75662C5.24522 3.71536 3.71542 5.24516 2.75668 7.12678C2.16288 8.2922 1.90777 9.56498 1.78582 11.0577C1.66672 12.5153 1.66674 14.322 1.66675 16.5938V23.4063C1.66674 25.678 1.66672 27.4847 1.78582 28.9424C1.90777 30.4351 2.16288 31.7078 2.75668 32.8733C3.71542 34.7549 5.24522 36.2847 7.12684 37.2434C8.29226 37.8372 9.56504 38.0923 11.0577 38.2143C12.5153 38.3334 14.322 38.3334 16.5936 38.3334H23.4064C25.678 38.3334 27.4848 38.3334 28.9425 38.2143C30.4351 38.0923 31.7079 37.8372 32.8733 37.2434C34.7549 36.2847 36.2847 34.7549 37.2435 32.8733C37.8373 31.7078 38.0924 30.4351 38.2143 28.9424C38.3334 27.4848 38.3334 25.6781 38.3334 23.4065V16.5937C38.3334 14.3221 38.3334 12.5153 38.2143 11.0577C38.0924 9.56498 37.8373 8.2922 37.2435 7.12678C36.2847 5.24516 34.7549 3.71536 32.8733 2.75662C31.7079 2.16282 30.4351 1.90771 28.9425 1.78576C27.4848 1.66666 25.6781 1.66667 23.4063 1.66669H16.5938ZM8.64015 5.72664C9.25733 5.41217 10.0426 5.21314 11.3292 5.10802C12.6351 5.00132 14.3057 5.00002 16.6667 5.00002H23.3334C25.6945 5.00002 27.365 5.00132 28.671 5.10802C29.9575 5.21314 30.7428 5.41217 31.36 5.72664C32.6144 6.3658 33.6343 7.38567 34.2735 8.64008C34.5879 9.25727 34.787 10.0426 34.8921 11.3291C34.9988 12.6351 35.0001 14.3056 35.0001 16.6667V23.3334C35.0001 23.9307 35 24.4839 34.9981 24.9981L32.3571 22.357C31.0554 21.0553 28.9448 21.0553 27.6431 22.357L23.9227 26.0774C23.5972 26.4029 23.0696 26.4029 22.7442 26.0774L12.3571 15.6904C11.0554 14.3886 8.94481 14.3886 7.64306 15.6904L5.00008 18.3334V16.6667C5.00008 14.3056 5.00138 12.6351 5.10808 11.3291C5.2132 10.0426 5.41223 9.25727 5.72671 8.64008C6.36586 7.38567 7.38573 6.3658 8.64015 5.72664Z" fill="#7C8B9D"/>
<path d="M20.0001 12.5C20.0001 10.1988 21.8656 8.33335 24.1667 8.33335C26.4679 8.33335 28.3334 10.1988 28.3334 12.5C28.3334 14.8012 26.4679 16.6667 24.1667 16.6667C21.8656 16.6667 20.0001 14.8012 20.0001 12.5Z" stroke="#7C8B9D" stroke-width="1.67"/>
<path fill-rule="evenodd" clip-rule="evenodd" d="M16.5938 1.66669C14.3221 1.66667 12.5154 1.66666 11.0577 1.78576C9.56504 1.90771 8.29226 2.16282 7.12684 2.75662C5.24522 3.71536 3.71542 5.24516 2.75668 7.12678C2.16288 8.2922 1.90777 9.56498 1.78582 11.0577C1.66672 12.5153 1.66674 14.322 1.66675 16.5938V23.4063C1.66674 25.678 1.66672 27.4847 1.78582 28.9424C1.90777 30.4351 2.16288 31.7078 2.75668 32.8733C3.71542 34.7549 5.24522 36.2847 7.12684 37.2434C8.29226 37.8372 9.56504 38.0923 11.0577 38.2143C12.5153 38.3334 14.322 38.3334 16.5936 38.3334H23.4064C25.678 38.3334 27.4848 38.3334 28.9425 38.2143C30.4351 38.0923 31.7079 37.8372 32.8733 37.2434C34.7549 36.2847 36.2847 34.7549 37.2435 32.8733C37.8373 31.7078 38.0924 30.4351 38.2143 28.9424C38.3334 27.4848 38.3334 25.6781 38.3334 23.4065V16.5937C38.3334 14.3221 38.3334 12.5153 38.2143 11.0577C38.0924 9.56498 37.8373 8.2922 37.2435 7.12678C36.2847 5.24516 34.7549 3.71536 32.8733 2.75662C31.7079 2.16282 30.4351 1.90771 28.9425 1.78576C27.4848 1.66666 25.6781 1.66667 23.4063 1.66669H16.5938ZM8.64015 5.72664C9.25733 5.41217 10.0426 5.21314 11.3292 5.10802C12.6351 5.00132 14.3057 5.00002 16.6667 5.00002H23.3334C25.6945 5.00002 27.365 5.00132 28.671 5.10802C29.9575 5.21314 30.7428 5.41217 31.36 5.72664C32.6144 6.3658 33.6343 7.38567 34.2735 8.64008C34.5879 9.25727 34.787 10.0426 34.8921 11.3291C34.9988 12.6351 35.0001 14.3056 35.0001 16.6667V23.3334C35.0001 23.9307 35 24.4839 34.9981 24.9981L32.3571 22.357C31.0554 21.0553 28.9448 21.0553 27.6431 22.357L23.9227 26.0774C23.5972 26.4029 23.0696 26.4029 22.7442 26.0774L12.3571 15.6904C11.0554 14.3886 8.94481 14.3886 7.64306 15.6904L5.00008 18.3334V16.6667C5.00008 14.3056 5.00138 12.6351 5.10808 11.3291C5.2132 10.0426 5.41223 9.25727 5.72671 8.64008C6.36586 7.38567 7.38573 6.3658 8.64015 5.72664Z" stroke="#7C8B9D" stroke-width="1.67"/>
</g>
</g>
</svg>
