<svg width="345" height="376" viewBox="0 0 345 376" fill="none" xmlns="http://www.w3.org/2000/svg">
<path d="M-56.0938 247.836C-69.5499 222.541 -74.1575 200.755 -71.3129 175.873C-69.8796 163.335 -67.1337 151.836 -58.9046 123.909C-51.4672 98.6686 -47.6507 83.5282 -44.9025 68.3607C-42.4751 54.9641 -41.8113 49.105 -39.7146 22.5682C-39.1114 14.9334 -37.3166 11.7711 -33.0304 10.7909C-29.4476 9.97151 -24.3856 13.0517 -16.7717 20.6844C-7.55511 29.9236 2.65902 44.6222 8.40144 56.9097C18.8653 79.3001 25.6023 107.177 27.9743 137.9C28.3571 142.858 28.6795 147.299 28.6908 147.768C28.7021 148.237 30.0138 146.357 31.6058 143.59C39.3437 130.139 51.205 113.526 62.4011 100.459C70.3091 91.2293 77.5149 83.6844 92.6296 68.8077C108.543 53.1448 113.57 47.8592 121.889 38.044C128.854 29.8265 136.106 19.8133 144.754 6.47527C147.842 1.71298 149.846 0.0664392 152.374 0.216996C155.024 0.374889 155.398 2.16461 155.138 13.4595C155.005 19.2132 154.985 32.5639 155.093 43.1278C155.359 69.044 154.902 77.5851 152.579 90.1274C148.059 114.544 136.331 139.366 117.589 164.19C114.955 167.678 112.87 170.525 112.955 170.515C113.04 170.506 115.48 168.888 118.378 166.92C129.359 159.461 147.869 149.507 161.918 143.504C181.434 135.166 194.68 131.304 233.369 122.671C253.616 118.153 263.333 115.718 277.779 111.542C282.73 110.111 288.064 108.673 289.633 108.346C297.162 106.78 299.358 109.657 294.883 115.225C293.839 116.524 288.503 122.036 283.024 127.474C269.436 140.962 262.339 148.407 251.194 160.868C239.783 173.626 235.564 178.051 228.314 184.863C221.473 191.292 214.595 196.775 207.812 201.207C204.947 203.078 202.651 204.69 202.709 204.788C202.768 204.885 207.019 205.258 212.156 205.616C236.478 207.309 252.39 211.181 286.347 223.669C303.563 230.001 310.829 232.309 327.685 236.804C341.901 240.594 344.27 241.691 344.358 244.521C344.387 245.443 343.97 246.897 343.432 247.752C341.838 250.287 334.393 254.428 324.65 258.2C305.196 265.73 289.173 270.121 256.354 276.916C247.782 278.691 234.141 281.733 226.04 283.676C209.339 287.682 202.621 289.002 194.304 289.914C188.646 290.534 188.54 290.565 190.204 291.086C191.144 291.381 196.11 292.938 201.241 294.547C219.471 300.262 232.966 304.092 255.433 309.928C267.95 313.179 279.663 316.503 281.463 317.314C288.156 320.331 289.035 324.348 284.221 329.921C280.512 334.215 277.083 336.732 265.622 343.575C232.484 363.359 198.332 373.796 162.251 375.163C130.157 376.38 94.2115 370.365 68.218 359.429C52.5942 352.856 43.7161 346.791 26.1004 330.659C-6.73096 306.087 -37.974 280.919 -56.0938 247.836ZM-37.8785 262.002C-33.8901 267.301 -25.1816 276.863 -22.9736 278.367C-22.6834 278.565 -22.7904 274.679 -23.2115 269.731C-24.5376 254.149 -24.216 237.112 -22.3206 222.547C-20.7257 210.291 -19.1717 202.433 -13.3919 177.399C-8.69874 157.072 -6.28837 141.934 -5.94111 130.606C-5.5545 117.995 -6.80764 109.503 -11.0368 96.0731C-12.4573 91.5624 -13.5618 87.4124 -13.4912 86.851C-13.3073 85.3883 -11.4985 83.9774 -9.50139 83.7388C-7.86903 83.5437 -7.82509 83.5847 -6.39263 86.6437C-2.95319 93.9883 0.31678 107.574 1.01144 117.406C2.09511 132.742 0.0210492 148.627 -7.14401 179.869C-14.6393 212.549 -16.7241 226.68 -16.8623 245.734C-16.9501 257.825 -15.7822 278.471 -15.0079 278.517C-14.284 278.56 -5.27013 262.984 0.631692 251.492C15.9141 215.579 21.889 180.345 21.5451 155.09C21.1973 131.076 16.9334 104.036 10.0746 82.348C2.90061 59.6635 -6.25527 43.1538 -19.7039 28.6521C-24.4805 23.5014 -30.6529 18.0642 -31.801 17.9958C-32.1925 17.9724 -32.6596 21.2197 -32.9954 26.3001C-35.2506 60.4203 -39.3513 80.7598 -53.9208 130.091C-63.7714 163.444 -66.3554 180.238 -64.4537 198.548C-62.3466 218.837 -52.2839 242.864 -37.8785 262.002ZM-1.89916 300.34C10.6717 307.394 17.1283 312.22 31.193 325.078C45.8219 338.452 52.584 343.614 62.4363 348.926C89.8664 363.716 135.662 371.797 173.803 368.578C204.043 366.026 235.146 355.762 262.973 339.152C274.858 332.058 280.441 327.508 280.014 325.261C279.682 323.507 273.812 321.535 252.306 315.954C226.987 309.385 218.628 306.998 192.743 298.946C148.545 285.199 129.323 280.274 106.926 276.958C96.1698 275.365 71.3026 273.78 61.384 274.055C33.723 274.821 7.80344 279.893 -10.3394 288.09C-12.1654 288.915 -12.2893 289.053 -11.8549 289.778C-11.552 290.284 -10.1063 290.626 -7.83837 290.729C1.99453 291.176 21.9054 294.258 38.8376 297.954C60.6473 302.715 76.9438 307.313 106.986 317.182C127.982 324.08 133.193 325.691 141.599 327.883C171.089 335.574 198.686 336.691 226.589 331.324C230.397 330.591 234.22 330.014 235.085 330.04C237.783 330.123 238.139 332.376 235.772 334.38C234.864 335.149 232.844 335.731 226.867 336.947C211.213 340.131 195.34 341.221 178.704 340.255C157.741 339.037 141.747 335.651 113.714 326.495C106.332 324.084 96.1545 320.76 91.0974 319.109C60.6188 309.158 28.0955 301.372 1.73195 297.715C-2.15176 297.177 -6.07483 296.627 -6.98604 296.495C-7.8972 296.363 -8.58392 296.355 -8.51206 296.478C-8.44024 296.602 -5.46439 298.339 -1.89916 300.34ZM8.40971 272.989C46.0927 256.664 81.8592 246.546 114.999 242.836C137.954 240.267 156.877 240.231 191.437 242.695C216.007 244.446 224.397 244.708 239.079 244.181C244.717 243.979 249.905 243.9 250.608 244.006C253.262 244.404 253.288 247.269 250.653 248.848C249.072 249.795 246.948 249.959 231.343 250.344C222.706 250.557 211.641 250.133 188.244 248.695C170.931 247.631 152.929 246.784 148.24 246.812C113.508 247.025 82.7424 252.13 48.7719 263.32C41.1624 265.826 27.1858 270.884 26.141 271.51C25.8604 271.678 28.2001 271.411 31.3401 270.917C61.2661 266.207 94.1831 267.31 128.114 274.16C136.278 275.808 147.609 278.539 159.337 281.685C169.101 284.305 175.369 285.057 184.579 284.713C197.869 284.216 204.891 283.069 227.208 277.751C235.964 275.665 252.147 272.058 263.171 269.736C290.659 263.946 305.938 259.684 323.077 253.024C330.558 250.117 337.186 247.07 336.937 246.653C336.615 246.116 333.087 245.045 322.129 242.16C306.611 238.074 299.234 235.717 281.363 229.136C253.938 219.036 241.717 215.638 223.275 212.981C164.538 205.023 88.2116 228.361 35.4159 255.645C22.4508 262.45 8.19979 270.588 2.4082 274.494C-0.298581 276.32 -1.92128 277.536 -1.19773 277.198C-0.474228 276.859 3.84911 274.965 8.40971 272.989ZM8.7024 252.482C25.8415 230.3 37.3263 211.99 45.8699 193.228C52.13 179.48 55.6676 166.977 58.4167 148.883C60.8003 133.195 61.0143 132.212 62.325 130.927C63.7802 129.501 65.2168 129.221 66.6289 130.087C67.4685 130.602 67.5531 131.496 67.1609 135.702C65.8837 149.398 62.0003 168.214 58.0302 179.943C50.9341 200.905 34.1876 229.29 13.442 255.518C11.4386 258.05 9.94886 260.036 10.1315 259.929C10.8924 259.487 29.0714 244.717 36.3452 238.635C97.6035 187.411 131.411 144.246 142.915 102.564C147.393 86.3427 148.34 74.9068 147.925 42.0946C147.809 32.9468 147.806 22.5252 147.918 18.9356C148.031 15.3459 148.047 12.4086 147.955 12.4081C147.863 12.4077 146.366 14.5888 144.627 17.2553C140.449 23.6649 132.799 33.8893 127.382 40.3052C119.521 49.6153 114.357 54.9778 90.5769 78.5297C73.336 95.6051 63.7315 106.612 52.2963 122.399C44.8557 132.671 36.0269 147.13 31.378 156.657C24.3441 181.674 24.4239 208.1 15.778 232.049C13.5569 238.064 4.94506 257.059 4.25077 257.475C3.99098 257.63 3.96102 257.768 4.184 257.782C4.40691 257.795 6.44025 255.41 8.7024 252.482ZM67.8012 234.344C96.5741 222.105 125.396 213.375 152.181 208.788C160.234 207.408 176.05 205.685 184.77 205.238C192.699 204.908 191.232 205.93 198.016 201.479C217.08 188.974 224.782 182.069 245.59 158.825C256.895 146.197 264.176 138.547 277.434 125.371C283.009 119.83 287.685 115.066 287.825 114.784C287.965 114.502 284.893 115.194 280.998 116.321C262.434 121.697 251.611 124.395 225.402 130.181C195.6 136.761 181.402 141.004 163.061 148.811C151.21 153.856 143.332 157.921 129.907 165.919C111.325 176.99 101.044 184.721 91.8137 194.564C81.822 205.22 67.1612 219.182 53.7321 230.83C50.1333 233.951 47.264 236.501 47.356 236.496C47.448 236.49 51.9 233.669 57.2494 230.226C69.6357 222.253 95.4988 207.166 108.429 200.369C127.079 190.566 145.995 181.926 173.306 170.733C193.851 162.314 197.355 160.979 199.293 160.836C201.14 160.699 202.125 161.495 201.939 162.972C201.732 164.62 198.336 166.333 182.88 172.591C139.433 190.182 118.184 200.29 86.9541 218.225C75.6936 224.692 45.7526 243.422 44.9508 244.502C44.7574 244.762 48.2488 243.251 52.7097 241.144C57.1707 239.037 63.9619 235.977 67.8012 234.344Z" fill="#313D5A"/>
</svg>
