<svg width="57" height="55" viewBox="0 0 57 55" fill="none" xmlns="http://www.w3.org/2000/svg">
<rect width="56.5776" height="54.6" rx="27.3" fill="white" fill-opacity="0.13"/>
<path d="M35.7441 35.9545L29.6935 30.1153C29.1532 30.5324 28.5319 30.8626 27.8296 31.1059C27.1273 31.3492 26.38 31.4709 25.5877 31.4709C23.6248 31.4709 21.9637 30.8146 20.6045 29.5022C19.2453 28.1898 18.5653 26.5868 18.5646 24.6933C18.5646 22.799 19.2446 21.196 20.6045 19.8843C21.9645 18.5726 23.6255 17.9163 25.5877 17.9156C27.5505 17.9156 29.2116 18.5719 30.5708 19.8843C31.93 21.1967 32.61 22.7997 32.6107 24.6933C32.6107 25.4579 32.4847 26.1791 32.2326 26.8569C31.9805 27.5346 31.6383 28.1342 31.2061 28.6555L37.2838 34.5208C37.4819 34.7119 37.5809 34.9465 37.5809 35.2246C37.5809 35.5027 37.4729 35.746 37.2568 35.9545C37.0587 36.1457 36.8066 36.2412 36.5004 36.2412C36.1943 36.2412 35.9422 36.1457 35.7441 35.9545ZM25.5877 29.3854C26.9382 29.3854 28.0864 28.9291 29.0322 28.0164C29.978 27.1036 30.4505 25.9959 30.4498 24.6933C30.4498 23.3899 29.9769 22.2818 29.0311 21.3691C28.0854 20.4564 26.9375 20.0004 25.5877 20.0011C24.2371 20.0011 23.0889 20.4574 22.1431 21.3701C21.1973 22.2829 20.7248 23.3906 20.7255 24.6933C20.7255 25.9966 21.1984 27.1047 22.1442 28.0174C23.09 28.9301 24.2378 29.3861 25.5877 29.3854Z" fill="white"/>
</svg>
