<svg width="1572" height="796" viewBox="0 0 1572 796" fill="none" xmlns="http://www.w3.org/2000/svg">
<path d="M1494.93 676.551C1508.62 678.399 1519.11 683.018 1526.41 690.409C1533.71 697.799 1539.92 709.993 1545.03 726.991L1564.19 796H1544.48L1525.59 728.654C1523.03 719.601 1520.02 712.58 1516.56 707.591C1513.27 702.418 1508.8 698.63 1503.14 696.229C1497.49 693.827 1489.91 692.256 1480.42 691.517L1438.81 735.029V796H1419.1V602H1438.81V710.917L1541.74 602H1566.1L1494.93 676.551Z" fill="white"/>
<path d="M1345.1 602H1366.1V796H1345.1V602Z" fill="white"/>
<path d="M1253.74 796C1233.17 796 1217.88 791.289 1207.86 781.866C1198.02 772.258 1193.1 757.662 1193.1 738.077V602H1212.42V738.077C1212.42 752.304 1215.73 762.835 1222.35 769.671C1229.14 776.508 1239.61 779.926 1253.74 779.926H1314.1V796H1253.74Z" fill="white"/>
<path d="M1080.1 796C1057.96 796 1040.54 791.18 1027.86 781.539C1015.36 771.716 1009.1 758.255 1009.1 741.156V602H1028.39V741.156C1028.39 753.344 1032.95 762.894 1042.06 769.806C1051.17 776.718 1063.85 780.174 1080.1 780.174C1096.36 780.174 1109.04 776.718 1118.15 769.806C1127.26 762.894 1131.81 753.344 1131.81 741.156V602H1151.1V741.156C1151.1 758.255 1144.76 771.716 1132.08 781.539C1119.58 791.18 1102.25 796 1080.1 796Z" fill="white"/>
<path d="M899.604 796C876.675 796 858.647 791.18 845.519 781.539C832.575 771.716 826.104 758.255 826.104 741.156V602H846.073V741.156C846.073 753.344 850.788 762.894 860.219 769.806C869.649 776.718 882.777 780.174 899.604 780.174C916.43 780.174 929.558 776.718 938.988 769.806C948.419 762.894 953.134 753.344 953.134 741.156V602H973.104V741.156C973.104 758.255 966.539 771.716 953.411 781.539C940.468 791.18 922.532 796 899.604 796Z" fill="white"/>
<path d="M719.385 618.074H658.104V602H800.104V618.074H738.822V796H719.385V618.074Z" fill="white"/>
<path d="M1426.6 565C1381.53 565 1346.08 555.483 1320.27 536.45C1294.83 517.058 1282.1 490.483 1282.1 456.726V182H1321.36V456.726C1321.36 480.787 1330.63 499.64 1349.17 513.287C1367.71 526.933 1393.52 533.757 1426.6 533.757C1459.68 533.757 1485.49 526.933 1504.03 513.287C1522.57 499.64 1531.84 480.787 1531.84 456.726V182H1571.1V456.726C1571.1 490.483 1558.2 517.058 1532.39 536.45C1506.94 555.483 1471.68 565 1426.6 565Z" fill="white"/>
<path d="M1156.1 182H1193.1V560H1156.1V182Z" fill="white"/>
<path d="M1015.1 182H1057.1V560H1015.1V182Z" fill="white"/>
<path d="M807.178 327.26C834.087 330.86 854.717 339.86 869.068 354.26C883.419 368.66 895.618 392.42 905.664 425.54L943.336 560H904.588L867.454 428.78C862.431 411.14 856.511 397.46 849.694 387.74C843.236 377.66 834.446 370.28 823.323 365.6C812.201 360.92 797.311 357.86 778.655 356.42L696.852 441.2V560H658.104V182H696.852V394.22L899.206 182H947.104L807.178 327.26Z" fill="white"/>
<path fill-rule="evenodd" clip-rule="evenodd" d="M88.0361 0.727539L91.5752 0.926758C127.89 3.13365 156.708 8.36876 182.525 22.1699C208.91 36.2751 230.849 58.6296 254.712 92.6182C254.849 92.6176 254.989 92.6123 255.127 92.6123C259.089 92.6124 262.994 92.8618 266.823 93.3506C288.159 64.4679 296.615 48.2148 303.397 20.2637L304.063 17.4678L306.316 7.77051H440.366L439.639 20.9971L439.434 24.5361C437.227 60.8582 431.999 89.6819 418.202 115.505C403.93 142.216 381.219 164.385 346.543 188.591H346.532C346.468 189.934 346.372 191.269 346.251 192.597L347.68 193.662C377.629 215.936 393.969 224.584 422.458 231.501L425.254 232.167L434.948 234.421V368.499L421.726 367.776L418.187 367.572C396.741 366.269 377.912 363.906 360.77 359.351L401.461 511.249C426.582 507.603 454.254 506.217 486.43 506.634V203.855H413.645V178.776H511.503V681.62C511.5 684 511.503 706.778 511.503 711.447V781.138C511.5 783 511.586 793.454 511.503 795.867C506.065 795.867 491.75 795.752 487.838 795.752H376.619C364 795.752 341.5 795.752 321.634 795.752H0V178.776H94.2178V203.855H25.0732V509.692C56.5946 509.824 84.5298 511.254 110.538 514.077L149.98 366.865H73.1904L73.9121 353.639L74.1172 350.1C76.3235 313.777 81.5531 284.954 95.3496 259.131C109.162 233.28 130.887 211.692 163.705 188.386C163.641 186.983 163.603 185.572 163.603 184.154C163.603 181.483 163.722 178.839 163.946 176.226L162.082 174.837C132.135 152.564 115.796 143.914 87.3096 136.998L84.5127 136.337L74.8135 134.078V0L88.0361 0.727539ZM25.0732 770.673H264.324C259.547 768.808 254.776 766.994 250 765.248C173.921 737.431 119.588 724.435 25.0732 723.771V770.673ZM25.0732 698.688C122.16 699.33 179.238 712.67 258.609 741.69C281.456 750.044 304.199 759.698 327.308 770.673H448.068C375.076 725.554 312.69 692.448 250 669.526C172.534 641.203 122.366 628.252 25.0732 628.034V698.688ZM25.0732 602.955C124.903 603.152 177.828 616.438 258.609 645.974C330.722 672.34 401.845 711.509 486.43 765.1V695.353C400.812 640.94 330.472 602.122 259.746 576.263C182.948 548.183 121.967 535.206 25.0732 534.771V602.955ZM486.43 605.676C472.619 606.043 455.844 606.916 439.372 609.03C426.466 610.687 414.155 613.056 403.812 616.355C430.207 631.129 457.549 647.548 486.43 665.685V605.676ZM486.43 531.714C407.384 530.653 358.815 540.824 307.418 568.257C329.941 577.938 352.62 588.896 375.896 601.173C381.189 598.094 386.96 595.619 392.75 593.602C405.941 589.006 421.233 586.07 436.177 584.151C453.946 581.87 471.921 580.959 486.43 580.586V531.714ZM247.982 279.574C225.714 309.531 217.068 325.875 210.153 354.371L209.487 357.168L207.234 366.865H175.935L135.626 517.319C181.115 524.166 221.999 535.756 268.354 552.705C271.495 553.854 274.633 555.032 277.771 556.229C310.846 536.516 341.704 523.51 376.711 515.768L331.968 348.742C330.381 347.968 328.805 347.165 327.241 346.329C300.805 332.197 278.823 309.791 254.906 275.691C253.576 275.688 252.253 275.654 250.938 275.595L247.982 279.574ZM308.155 261.528C301.062 266.497 293.353 270.527 284.66 273.95C303.604 298.886 320.488 314.283 339.061 324.211C358.149 334.415 380.043 339.405 409.875 341.842V311.317C386.972 308.508 368.233 303.405 350.747 294.117C335.829 286.193 322.337 275.491 308.155 261.528ZM167.71 216.538C142.782 235.486 127.387 252.376 117.462 270.953C107.261 290.046 102.277 311.947 99.8408 341.786H130.352C133.16 318.878 138.269 300.138 147.554 282.647C155.476 267.725 166.17 254.226 180.129 240.04C175.162 232.945 171.132 225.233 167.71 216.538ZM196.941 258.716C184.648 271.339 175.981 282.578 169.697 294.414C162.619 307.748 158.236 322.46 155.624 341.786H187.492C194.239 316.772 203.135 299.298 219.827 275.677C211.169 270.115 203.585 264.609 196.941 258.716ZM343.782 221.825C338.222 230.486 332.713 238.066 326.821 244.712C339.442 257.009 350.677 265.678 362.511 271.963C375.842 279.044 390.552 283.427 409.875 286.039V254.162C384.868 247.413 367.397 238.521 343.782 221.825ZM255.121 120.196C219.81 120.197 191.185 148.829 191.185 184.149C191.185 219.47 219.81 248.107 255.121 248.107C290.433 248.107 319.063 219.471 319.063 184.149C319.063 148.829 290.433 120.196 255.121 120.196ZM383.199 32.8496C380.391 55.759 375.283 74.5023 365.998 91.9932C358.077 106.914 347.379 120.407 333.423 134.591C338.391 141.687 342.418 149.402 345.841 158.098C370.769 139.149 386.163 122.259 396.089 103.682C406.29 84.5885 411.275 62.6883 413.711 32.8496H383.199ZM99.8867 114.337C124.893 121.086 142.365 129.979 165.979 146.674C171.539 138.013 177.043 130.428 182.935 123.782C170.316 111.488 159.088 102.815 147.257 96.5312C133.924 89.45 119.212 85.0673 99.8867 82.4551V114.337ZM326.059 32.8496C319.311 57.8634 310.416 75.3381 293.724 98.959C302.38 104.52 309.963 110.023 316.605 115.914C328.897 103.292 337.572 92.0617 343.854 80.2266C350.933 66.8917 355.315 52.1774 357.927 32.8496H326.059ZM99.8867 57.1758C122.791 59.9849 141.528 65.0942 159.015 74.3818C173.933 82.3056 187.43 93.0034 201.611 106.966C208.704 101.998 216.415 97.9716 225.106 94.5488C206.163 69.6137 189.278 54.2165 170.706 44.2881C151.617 34.0839 129.719 29.0937 99.8867 26.6572V57.1758Z" fill="white"/>
</svg>
