<svg width="530" height="845" viewBox="0 0 530 845" fill="none" xmlns="http://www.w3.org/2000/svg">
<path fill-rule="evenodd" clip-rule="evenodd" d="M91.2132 0.772454L94.88 0.983972C132.505 3.32711 162.363 8.88541 189.112 23.5386C216.45 38.5145 239.18 62.2491 263.904 98.336C264.046 98.3353 264.192 98.3298 264.334 98.3298C268.44 98.3299 272.485 98.5947 276.453 99.1136C298.559 68.4479 307.319 51.1914 314.347 21.5147L315.037 18.5462L317.371 8.25022H456.258L455.505 22.2933L455.292 26.0509C453.006 64.6153 447.589 95.2184 433.294 122.636C418.508 150.996 394.976 174.534 359.049 200.234H359.038C358.972 201.66 358.872 203.077 358.747 204.487L360.227 205.618C391.257 229.267 408.187 238.449 437.704 245.793L440.601 246.5L450.645 248.893V391.248L436.945 390.481L433.278 390.264C411.059 388.881 391.55 386.372 373.789 381.535L415.949 542.811C441.977 538.94 470.647 537.468 503.984 537.911V216.441H428.572V189.813H529.962V723.7C529.959 726.227 529.962 750.412 529.962 755.369V829.362C529.959 831.339 530.049 842.438 529.962 845C524.328 845 509.497 844.878 505.443 844.878H390.211C377.136 844.878 353.824 844.878 333.241 844.878H0V189.813H97.618V216.441H25.9781V541.158C58.637 541.298 87.5803 542.817 114.527 545.814L155.393 389.514H75.8318L76.5795 375.471L76.792 371.713C79.0779 333.149 84.4962 302.546 98.7906 275.128C113.102 247.681 135.611 224.761 169.613 200.016C169.547 198.527 169.507 197.029 169.507 195.523C169.507 192.687 169.631 189.879 169.863 187.105L167.931 185.631C136.903 161.983 119.975 152.799 90.4604 145.456L87.5626 144.754L77.5134 142.355V0L91.2132 0.772454ZM25.9781 818.251H273.863C268.914 816.271 263.97 814.345 259.022 812.491C180.197 782.957 123.904 769.158 25.9781 768.454V818.251ZM25.9781 741.821C126.569 742.504 185.707 756.667 267.942 787.479C291.614 796.348 315.177 806.598 339.12 818.251H464.239C388.612 770.347 323.974 735.196 259.022 710.86C178.761 680.787 126.782 667.038 25.9781 666.806V741.821ZM25.9781 640.179C129.411 640.387 184.246 654.494 267.942 685.853C342.657 713.847 416.347 755.434 503.984 812.333V738.28C415.277 680.509 342.398 639.294 269.12 611.839C189.551 582.025 126.369 568.247 25.9781 567.786V640.179ZM503.984 643.067C489.676 643.458 472.295 644.384 455.228 646.629C441.856 648.388 429.101 650.904 418.385 654.406C445.732 670.092 474.061 687.524 503.984 706.781V643.067ZM503.984 564.539C422.086 563.414 371.765 574.212 318.512 603.338C341.848 613.617 365.345 625.252 389.462 638.286C394.946 635.017 400.925 632.39 406.924 630.248C420.591 625.368 436.434 622.251 451.918 620.214C470.328 617.792 488.952 616.825 503.984 616.429V564.539ZM256.932 296.834C233.86 328.64 224.902 345.993 217.737 376.248L217.047 379.218L214.713 389.514H182.284L140.521 549.256C187.651 556.525 230.01 568.831 278.039 586.827C281.293 588.046 284.544 589.297 287.796 590.569C322.064 569.638 354.035 555.829 390.306 547.609L343.948 370.272C342.304 369.45 340.671 368.597 339.051 367.71C311.661 352.705 288.885 328.916 264.105 292.711C262.728 292.708 261.357 292.672 259.993 292.609L256.932 296.834ZM319.276 277.674C311.927 282.95 303.939 287.228 294.933 290.863C314.561 317.338 332.054 333.685 351.297 344.226C371.074 355.06 393.758 360.359 424.667 362.946V330.537C400.937 327.554 381.522 322.135 363.405 312.275C347.948 303.862 333.97 292.498 319.276 277.674ZM173.762 229.906C147.935 250.024 131.985 267.957 121.701 287.681C111.132 307.952 105.968 331.205 103.444 362.886H135.056C137.966 338.564 143.259 318.667 152.879 300.097C161.087 284.253 172.167 269.92 186.63 254.859C181.483 247.326 177.308 239.138 173.762 229.906ZM204.049 274.688C191.312 288.091 182.331 300.023 175.821 312.59C168.488 326.747 163.946 342.367 161.24 362.886H194.259C201.249 336.328 210.466 317.775 227.76 292.696C218.79 286.79 210.932 280.944 204.049 274.688ZM356.189 235.52C350.427 244.715 344.72 252.763 338.616 259.819C351.692 272.876 363.333 282.079 375.593 288.753C389.406 296.27 404.647 300.924 424.667 303.698V269.853C398.757 262.687 380.655 253.246 356.189 235.52ZM264.328 127.617C227.743 127.618 198.085 158.017 198.084 195.518C198.084 233.019 227.742 263.423 264.328 263.424C300.915 263.424 330.578 233.02 330.578 195.518C330.577 158.017 300.914 127.617 264.328 127.617ZM397.028 34.8776C394.118 59.2013 388.827 79.1018 379.206 97.6724C371 113.514 359.916 127.841 345.456 142.9C350.603 150.434 354.775 158.625 358.322 167.858C384.15 147.739 400.099 129.806 410.383 110.082C420.952 89.8106 426.117 66.5584 428.641 34.8776H397.028ZM103.491 121.396C129.4 128.561 147.503 138.003 171.968 155.729C177.73 146.534 183.432 138.48 189.536 131.424C176.463 118.371 164.83 109.163 152.571 102.491C138.757 94.9722 123.514 90.319 103.491 87.5455V121.396ZM337.826 34.8776C330.835 61.4356 321.618 79.9892 304.324 105.068C313.292 110.972 321.149 116.815 328.031 123.07C340.767 109.668 349.754 97.7452 356.264 85.1794C363.598 71.0212 368.138 55.3985 370.844 34.8776H337.826ZM103.491 60.7056C127.223 63.688 146.635 69.1128 164.753 78.9738C180.21 87.3868 194.194 98.745 208.887 113.569C216.236 108.295 224.225 104.02 233.23 100.386C213.603 73.9113 196.109 57.5635 176.867 47.0222C157.089 36.1881 134.401 30.8898 103.491 28.3029V60.7056Z" fill="white"/>
</svg>
