<svg width="362" height="363" viewBox="0 0 362 363" fill="none" xmlns="http://www.w3.org/2000/svg">
<path d="M139 63.4998L164 105L210.5 111.5L250 130L257.5 182L234 234L173 264.5L137 309L86.5 344.5L17.5 351L14.5 243L66.5 216.5L110 208.5L104.5 178.5L66.5 157.5L20.5 90.9998L8.49998 20.4998L120.5 16.4998L139 63.4998Z" fill="#FEEFE5"/>
<path d="M224 116L189.5 98.4998L235 48.4998L277.5 26.4998L349 9.49983V121.5L268 159L224 116Z" fill="#FEEFE5"/>
<path d="M247.5 355L206.5 274.5L255.5 195L294 215L340.5 285L350 350L247.5 355Z" fill="#FEEFE5"/>
<path d="M116.868 181.128C116.868 145.025 146.135 115.759 182.237 115.759C218.34 115.759 247.607 145.025 247.607 181.128C247.607 217.23 218.34 246.497 182.237 246.497C146.135 246.497 116.868 217.23 116.868 181.128ZM92.2006 181.128C92.2006 230.854 132.511 271.165 182.237 271.165C231.963 271.165 272.274 230.854 272.274 181.128C272.274 131.402 231.963 91.091 182.237 91.091C132.511 91.091 92.2006 131.402 92.2006 181.128Z" fill="#CA2B30"/>
<path d="M119.335 181.124C119.335 146.384 147.498 118.222 182.238 118.222C216.978 118.222 245.14 146.384 245.14 181.124C245.14 215.864 216.978 244.027 182.238 244.027C147.498 244.027 119.335 215.864 119.335 181.124ZM114.402 181.124C114.402 218.589 144.773 248.96 182.238 248.96C219.702 248.96 250.074 218.589 250.074 181.124C250.074 143.66 219.702 113.288 182.238 113.288C144.773 113.288 114.402 143.66 114.402 181.124Z" fill="#CA2B30"/>
<path d="M346.616 0.713049L343.135 0.912992C307.409 3.08357 279.059 8.22929 253.659 21.8034C227.388 35.8439 205.586 58.1875 181.779 92.3013L171.861 106.512L188.533 111.228C205.808 116.116 217.118 121.793 226.619 129.987C235.732 137.846 243.866 148.599 253.792 164.999L255.801 168.354L262.785 180.132L273.769 171.963C303.233 150.055 319.307 141.547 347.334 134.745L350.085 134.092L359.624 131.873V0L346.616 0.713049ZM334.957 112.455C310.354 119.093 293.167 127.841 269.934 144.262C261.299 130.817 252.81 120.004 242.728 111.308C233.632 103.464 223.626 97.6613 211.768 92.9926C230.405 68.4671 247.016 53.3236 265.287 43.5586C284.067 33.5223 305.607 28.6154 334.957 26.219V112.455Z" fill="#CA2B30"/>
<path d="M347.164 54.9764C318.904 57.3551 296.998 62.4272 276.787 73.1592C256.717 83.816 239.257 99.5647 219.124 121.666L237.359 138.278C256.801 116.937 272.001 103.631 288.357 94.9457C304.572 86.3359 322.858 81.7772 349.231 79.5573L347.164 54.9764Z" fill="#CA2B30"/>
<path d="M0.712866 20.6534L0.912809 24.1343C3.08339 59.8608 8.22911 88.2108 21.8032 113.61C35.8437 139.881 58.1873 161.683 92.3011 185.491L106.511 195.408L111.228 178.736C116.115 161.462 121.793 150.151 129.987 140.65C137.846 131.538 148.599 123.403 164.998 113.477L168.354 111.468L180.131 104.485L171.963 93.5C150.055 64.036 141.547 47.9627 134.744 19.9355L134.092 17.1845L131.873 7.64508L-0.000183105 7.64509L0.712866 20.6534ZM112.454 32.3127C119.092 56.9152 127.84 74.1027 144.262 97.3351C130.817 105.97 120.003 114.459 111.308 124.542C103.463 133.637 97.6611 143.644 92.9925 155.502C68.4669 136.864 53.3235 120.254 43.5584 101.982C33.5221 83.2022 28.6152 61.6621 26.2188 32.3127L112.454 32.3127Z" fill="#CA2B30"/>
<path d="M54.9766 20.1036C57.3552 48.3639 62.4274 70.2701 73.1593 90.481C83.8162 110.55 99.5649 128.01 121.666 148.144L138.278 129.908C116.937 110.467 103.631 95.2671 94.9458 78.9108C86.336 62.6962 81.7774 44.4098 79.5575 18.0367L54.9766 20.1036Z" fill="#CA2B30"/>
<path d="M18.3339 361.73L21.8148 361.53C57.5412 359.359 85.8913 354.213 111.29 340.639C137.562 326.599 159.364 304.255 183.171 270.141L193.089 255.931L176.416 251.214C159.142 246.327 147.831 240.65 138.331 232.456C129.218 224.596 121.084 213.844 111.158 197.444L109.149 194.088L102.165 182.311L91.1805 190.48C61.7164 212.388 45.6431 220.895 17.616 227.698L14.865 228.351L5.32553 230.57L5.32553 362.443L18.3339 361.73ZM29.9932 249.988C54.5956 243.35 71.7832 234.602 95.0155 218.18C103.65 231.625 112.14 242.439 122.222 251.135C131.317 258.979 141.324 264.781 153.182 269.45C134.545 293.976 117.934 309.119 99.6624 318.884C80.8827 328.92 59.3425 333.827 29.9932 336.224V249.988Z" fill="#CA2B30"/>
<path d="M17.7841 307.463C46.0444 305.084 67.9506 300.012 88.1615 289.28C108.231 278.623 125.691 262.874 145.825 240.773L127.589 224.161C108.147 245.502 92.9476 258.808 76.5913 267.493C60.3767 276.103 42.0903 280.662 15.7172 282.882L17.7841 307.463Z" fill="#CA2B30"/>
<path d="M360.515 347.826L360.315 344.345C358.144 308.619 352.998 280.269 339.424 254.87C325.384 228.598 303.04 206.797 268.926 182.989L254.716 173.071L249.999 189.744C245.112 207.018 239.435 218.329 231.241 227.829C223.381 236.942 212.629 245.076 196.229 255.002L192.874 257.011L181.096 263.995L189.265 274.98C211.173 304.444 219.68 320.517 226.483 348.544L227.136 351.295L229.355 360.835H361.228L360.515 347.826ZM248.773 336.167C242.135 311.564 233.387 294.377 216.965 271.145C230.41 262.51 241.224 254.02 249.92 243.938C257.764 234.843 263.566 224.836 268.235 212.978C292.761 231.616 307.904 248.226 317.669 266.498C327.705 285.277 332.612 306.818 335.009 336.167H248.773Z" fill="#CA2B30"/>
<path d="M306.25 348.379C303.871 320.119 298.799 298.212 288.067 278.001C277.41 257.932 261.661 240.472 239.56 220.338L222.948 238.574C244.289 258.016 257.595 273.215 266.28 289.572C274.89 305.786 279.449 324.073 281.669 350.446L306.25 348.379Z" fill="#CA2B30"/>
</svg>
