<svg width="362" height="363" viewBox="0 0 362 363" fill="none" xmlns="http://www.w3.org/2000/svg">
<path d="M116.868 181.128C116.868 145.026 146.135 115.759 182.237 115.759C218.34 115.759 247.607 145.026 247.607 181.128C247.607 217.231 218.34 246.497 182.237 246.497C146.135 246.497 116.868 217.231 116.868 181.128ZM92.2006 181.128C92.2006 230.854 132.511 271.165 182.237 271.165C231.963 271.165 272.274 230.854 272.274 181.128C272.274 131.402 231.963 91.0913 182.237 91.0913C132.511 91.0913 92.2006 131.402 92.2006 181.128Z" fill="#CA2B30"/>
<path d="M119.335 181.125C119.335 146.384 147.498 118.222 182.238 118.222C216.978 118.222 245.14 146.384 245.14 181.125C245.14 215.865 216.978 244.027 182.238 244.027C147.498 244.027 119.335 215.865 119.335 181.125ZM114.402 181.125C114.402 218.589 144.773 248.961 182.238 248.961C219.703 248.961 250.074 218.589 250.074 181.125C250.074 143.66 219.703 113.289 182.238 113.289C144.773 113.289 114.402 143.66 114.402 181.125Z" fill="#CA2B30"/>
<path d="M346.616 0.713049L343.135 0.912992C307.409 3.08357 279.059 8.22929 253.659 21.8034C227.388 35.8439 205.586 58.1875 181.779 92.3013L171.861 106.512L188.533 111.228C205.808 116.116 217.118 121.793 226.619 129.987C235.732 137.846 243.866 148.599 253.792 164.999L255.801 168.354L262.785 180.132L273.769 171.963C303.233 150.055 319.307 141.547 347.334 134.745L350.085 134.092L359.624 131.873V0L346.616 0.713049ZM334.957 112.455C310.354 119.093 293.167 127.841 269.934 144.262C261.299 130.817 252.81 120.004 242.728 111.308C233.632 103.464 223.626 97.6613 211.768 92.9926C230.405 68.4671 247.016 53.3236 265.287 43.5586C284.067 33.5223 305.607 28.6154 334.957 26.219V112.455Z" fill="#CA2B30"/>
<path d="M347.164 54.9766C318.904 57.3552 296.998 62.4274 276.787 73.1593C256.718 83.8162 239.257 99.5649 219.124 121.666L237.359 138.278C256.801 116.937 272.001 103.631 288.357 94.9458C304.572 86.336 322.858 81.7774 349.231 79.5575L347.164 54.9766Z" fill="#CA2B30"/>
<path d="M0.712927 20.6538L0.91287 24.1348C3.08345 59.8612 8.22918 88.2112 21.8033 113.61C35.8437 139.882 58.1873 161.684 92.3012 185.491L106.512 195.409L111.228 178.736C116.115 161.462 121.793 150.151 129.987 140.651C137.846 131.538 148.599 123.404 164.998 113.478L168.354 111.469L180.131 104.485L171.963 93.5004C150.055 64.0364 141.547 47.9631 134.744 19.936L134.092 17.1849L131.873 7.6455L-0.00012207 7.64551L0.712927 20.6538ZM112.454 32.3131C119.092 56.9156 127.841 74.1032 144.262 97.3355C130.817 105.97 120.003 114.46 111.308 124.542C103.464 133.637 97.6611 143.644 92.9925 155.502C68.4669 136.865 53.3235 120.254 43.5585 101.982C33.5222 83.2026 28.6153 61.6625 26.2189 32.3131L112.454 32.3131Z" fill="#CA2B30"/>
<path d="M54.9767 20.104C57.3554 48.3643 62.4275 70.2705 73.1594 90.4814C83.8163 110.551 99.565 128.011 121.666 148.144L138.278 129.909C116.937 110.467 103.631 95.2675 94.946 78.9112C86.3361 62.6966 81.7775 44.4102 79.5576 18.0371L54.9767 20.104Z" fill="#CA2B30"/>
<path d="M18.3339 361.73L21.8148 361.53C57.5412 359.359 85.8913 354.214 111.29 340.639C137.562 326.599 159.364 304.255 183.171 270.142L193.089 255.931L176.416 251.214C159.142 246.327 147.831 240.65 138.331 232.456C129.218 224.597 121.084 213.844 111.158 197.444L109.149 194.089L102.165 182.311L91.1805 190.48C61.7165 212.388 45.6432 220.896 17.616 227.698L14.865 228.351L5.32556 230.57L5.32556 362.443L18.3339 361.73ZM29.9932 249.988C54.5957 243.35 71.7832 234.602 95.0155 218.181C103.65 231.625 112.14 242.439 122.222 251.135C131.317 258.979 141.324 264.782 153.182 269.45C134.545 293.976 117.934 309.119 99.6624 318.884C80.8827 328.921 59.3425 333.827 29.9932 336.224L29.9932 249.988Z" fill="#CA2B30"/>
<path d="M17.7842 307.463C46.0445 305.084 67.9507 300.012 88.1616 289.28C108.231 278.623 125.691 262.875 145.825 240.774L127.589 224.161C108.147 245.503 92.9477 258.809 76.5914 267.494C60.3768 276.103 42.0904 280.662 15.7173 282.882L17.7842 307.463Z" fill="#CA2B30"/>
<path d="M360.515 347.827L360.315 344.346C358.144 308.619 352.998 280.269 339.424 254.87C325.384 228.599 303.04 206.797 268.927 182.989L254.716 173.072L249.999 189.744C245.112 207.018 239.435 218.329 231.241 227.83C223.381 236.942 212.629 245.077 196.229 255.003L192.874 257.012L181.096 263.995L189.265 274.98C211.173 304.444 219.68 320.517 226.483 348.545L227.136 351.296L229.355 360.835H361.228L360.515 347.827ZM248.773 336.167C242.135 311.565 233.387 294.377 216.965 271.145C230.41 262.51 241.224 254.021 249.92 243.938C257.764 234.843 263.567 224.837 268.235 212.979C292.761 231.616 307.904 248.226 317.669 266.498C327.705 285.278 332.612 306.818 335.009 336.167H248.773Z" fill="#CA2B30"/>
<path d="M306.25 348.379C303.871 320.119 298.799 298.213 288.067 278.002C277.41 257.933 261.661 240.473 239.56 220.339L222.948 238.575C244.289 258.016 257.595 273.216 266.28 289.572C274.89 305.787 279.449 324.073 281.669 350.446L306.25 348.379Z" fill="#CA2B30"/>
</svg>
