<svg width="194" height="92" viewBox="0 0 194 92" fill="none" xmlns="http://www.w3.org/2000/svg">
<path id="Vector" fill-rule="evenodd" clip-rule="evenodd" d="M29.9782 83.1886C17.8857 83.1886 8.04397 73.1132 8.04397 60.7841C8.04397 48.4109 17.8857 38.3798 29.9782 38.3798C42.0708 38.3798 51.9125 48.4109 51.9125 60.7841C51.9125 73.1132 42.1149 83.1886 29.9782 83.1886ZM51.427 42.5778C49.5734 38.3356 45.6897 34.712 40.835 32.5025C37.3485 31.1326 33.6854 30.4255 29.9782 30.4255C13.5606 30.4255 0.188232 44.0361 0.188232 60.7841C0.188232 77.5322 13.5606 91.187 29.9782 91.187C32.6262 91.187 35.186 90.8334 37.6133 90.1706C43.9244 88.3146 49.1762 84.0282 51.427 78.9021V90.1706H59.1504V32.6792H51.427V42.5778ZM113.699 0.243652C118.024 0.243652 121.555 3.82305 121.555 8.19788V90.1264H113.699V0.243652ZM102.622 30.9558L103.46 31.1326V39.2636C102.754 39.131 102.092 38.9984 101.386 38.91C99.7089 38.6007 97.9877 38.4681 96.2665 38.4239C93.9716 38.4239 91.8532 38.5565 89.9554 38.91C88.2784 39.1752 86.6013 39.7055 85.0566 40.5009C84.174 40.9428 83.4237 41.5172 82.7176 42.2243C81.8349 43.1081 81.0405 44.2128 80.4226 45.6269C79.6282 47.5713 79.0986 50.1785 79.0986 53.7137V90.1706H71.2429V53.7137C71.2429 50.0459 71.6842 46.8201 72.6552 43.9919C73.4937 41.3405 74.9501 38.8658 76.8478 36.8331C78.0394 35.5958 79.4517 34.491 80.9081 33.6514C82.8941 32.5466 84.9684 31.7512 87.175 31.3093C90.0878 30.6465 93.133 30.4255 96.2665 30.4255C98.429 30.3813 100.547 30.6023 102.622 30.9558ZM178.84 76.6042C176.854 78.637 174.471 80.272 171.867 81.4209C169.175 82.5699 166.262 83.1886 163.349 83.1886C160.392 83.1886 157.524 82.6141 154.831 81.4209C150.904 79.6975 147.549 76.8694 145.166 73.29C142.695 69.578 141.415 65.2032 141.415 60.74C141.415 54.5091 143.842 48.9412 147.858 44.8757C149.844 42.8429 152.228 41.2079 154.831 40.1032C157.524 38.9542 160.436 38.3356 163.349 38.3356C166.394 38.3356 169.263 38.9542 171.867 40.1032C175.795 41.8266 179.149 44.6547 181.532 48.19C183.915 51.7694 185.283 56.1 185.283 60.74C185.328 66.7056 182.988 72.4062 178.84 76.6042ZM174.956 32.7676C171.293 31.1768 167.365 30.3813 163.349 30.3813C159.377 30.3813 155.405 31.1768 151.742 32.7676C146.402 35.0655 141.812 38.91 138.635 43.7709C135.325 48.8086 133.515 54.7301 133.559 60.74C133.559 69.0919 136.913 76.7368 142.253 82.2164C144.946 85.0003 148.167 87.2099 151.742 88.7565C155.405 90.3474 159.333 91.1428 163.349 91.1428C167.365 91.1428 171.293 90.3474 174.956 88.7565C180.296 86.4144 184.842 82.6141 188.064 77.7532C191.374 72.7155 193.183 66.794 193.139 60.7841C193.139 52.388 189.829 44.7873 184.445 39.3077C181.709 36.5238 178.487 34.3143 174.956 32.7676Z" fill="#132E3D"/>
</svg>
