<svg width="230" height="159" viewBox="0 0 230 159" fill="none" xmlns="http://www.w3.org/2000/svg">
<g id="August Home">
<g id="Group">
<path id="Vector" d="M74.1 92.3C72.9 93.4 71.7 94.2 70.2 94.8C68.3 95.6 66.3 95.9 64.1 95.9C62.7 95.9 61.3 95.7 60.1 95.5C58.8 95.2 57.7 94.7 56.7 93.9C55.7 93.1 54.9 92.2 54.3 91C53.7 89.8 53.4 88.4 53.4 86.8C53.4 85 53.7 83.4 54.4 82.3C55 81.1 55.9 80.1 56.9 79.4C57.9 78.7 59.1 78.1 60.4 77.8C61.6 77.4 62.9 77.2 64.2 76.9C65.6 76.6 66.9 76.4 68.1 76.3C69.3 76.2 70.3 76 71.2 75.7C72 75.5 72.6 75.2 73.1 74.8C73.5 74.5 73.7 74 73.7 73.2C73.7 72.3 73.5 71.5 73.2 71C72.9 70.4 72.4 70 71.9 69.8C71.3 69.5 70.7 69.3 70 69.2C69.2 69.1 68.5 69 67.8 69C65.8 69 64.2 69.4 63 70.1C61.8 70.8 61.2 72 61.1 74V74.7H54.6V73.9C54.7 71.9 55.1 70.2 55.8 68.9C56.6 67.5 57.6 66.4 58.8 65.5C60 64.7 61.5 64 63.1 63.7C65.9 63.1 69.1 63 72.2 63.5C73.4 63.7 74.6 64.1 75.6 64.5C70.4 55.5 60.8 49.5 49.8 49.5C33.3 49.5 20 62.9 20 79.4C20 95.9 33.3 109.3 49.8 109.3C60.7 109.3 70.2 103.5 75.4 94.7C75.4 94.7 75.3 94.7 75.2 94.6C74.7 94.1 74.3 93.3 74.1 92.3Z" fill="#CC0202"/>
<path id="Vector_2" d="M90.7001 95.9001C88.6001 95.9001 86.9001 95.6 85.5001 95.1C84.0001 94.5 82.9001 93.7 82.0001 92.7C81.1001 91.7 80.5001 90.4001 80.1001 88.9001C79.7001 87.5001 79.6001 85.9001 79.6001 84.3001V63.8H86.0001V84.9001C86.0001 86.6001 86.4001 87.8001 87.4001 88.8001C88.4001 89.8001 89.6001 90.2 91.3001 90.2C92.7001 90.2 93.9001 90 94.9001 89.6C95.9001 89.2 96.7001 88.6001 97.4001 87.8001C98.1001 87.0001 98.6001 86.1 98.9001 85.1C99.2001 84.1 99.4001 82.9 99.4001 81.6V63.8H105.8V95.3001H99.6001V92.1C98.7001 93.1 97.7001 94 96.6001 94.6C95.0001 95.5 93.0001 95.9001 90.7001 95.9001Z" fill="#CC0202"/>
<path id="Vector_3" d="M121.7 107.5C120.3 107.5 118.8 107.3 117.3 107C115.8 106.7 114.4 106.1 113.1 105.4C111.8 104.6 110.8 103.6 109.9 102.4C109.1 101.2 108.6 99.6 108.5 97.9V97.1H114.9V97.8C114.9 98.5 115.1 99.1 115.6 99.6C116 100.1 116.6 100.6 117.3 100.9C118 101.3 118.7 101.5 119.6 101.7C122.1 102.2 124.3 101.9 125.8 101.2C126.8 100.7 127.6 100 128.3 99.1C129 98.2 129.5 97.1 129.8 95.8C130.1 94.6 130.2 93.3 130.3 91.9C129.5 92.9 128.5 93.6 127.4 94.2C125.6 95.1 123.6 95.6 121.6 95.6C119.2 95.6 117.2 95.2 115.4 94.3C113.6 93.5 112.2 92.3 111 90.8C109.8 89.4 108.9 87.6 108.3 85.7C107.7 83.8 107.4 81.8 107.4 79.7C107.4 77.9 107.6 75.9 108.1 74C108.6 72 109.4 70.2 110.5 68.6C111.7 67 113.2 65.6 115.1 64.6C117 63.6 119.3 63 122 63C124 63 125.9 63.4 127.6 64.3C128.6 64.8 129.5 65.5 130.3 66.4V63.7H136.4V91.9C136.4 97 135.2 100.9 132.8 103.5C130.5 106.1 126.7 107.5 121.7 107.5ZM155.3 71C153.9 71 152.6 71.3 151.6 71.8C150.6 72.4 149.8 73.1 149.1 74C148.5 74.9 147.9 76 147.7 77.2C147.4 78.4 147.2 79.8 147.2 81.1C147.2 82.4 147.3 83.7 147.6 85C147.8 86.3 148.3 87.4 148.9 88.4C149.5 89.4 150.3 90.2 151.3 90.8C152.3 91.4 153.5 91.7 155 91.7C156.5 91.7 157.8 91.4 158.8 90.8C159.8 90.2 160.7 89.4 161.3 88.4C161.9 87.4 162.4 86.2 162.7 84.9C163 83.6 163.2 82.2 163.2 80.9C163.2 79.7 163 78.4 162.8 77.2C162.5 76 162 74.9 161.4 74C160.8 73.1 160 72.3 159 71.8C157.9 71.3 156.7 71 155.3 71Z" fill="#CC0202"/>
<path id="Vector_4" d="M149.5 95.9001C147.4 95.9001 145.7 95.6 144.3 95.1C142.9 94.5 141.7 93.7 140.8 92.7C139.9 91.7 139.3 90.4001 138.9 88.9001C138.5 87.5001 138.4 85.9001 138.4 84.3001V63.8H144.8V84.9001C144.8 86.6001 145.2 87.8001 146.2 88.8001C147.2 89.8001 148.4 90.2 150.1 90.2C151.5 90.2 152.7 90 153.7 89.6C154.7 89.2 155.5 88.6001 156.2 87.8001C156.9 87.0001 157.4 86.1 157.7 85.1C158.1 84 158.2 82.9 158.2 81.6V63.8H164.6V95.3001H158.5V92.1C157.6 93.1 156.6 94 155.5 94.6C153.9 95.5 151.9 95.9001 149.5 95.9001Z" fill="#CC0202"/>
<path id="Vector_5" d="M179.5 95.9C177.8 95.9 176.1 95.7 174.6 95.3C173 94.9 171.6 94.2999 170.3 93.5C169 92.7 168 91.4999 167.3 90.0999C166.5 88.6999 166.1 86.9999 166.1 85.0999V84.3H172.5V85C172.5 86 172.7 86.8 173.1 87.4C173.5 88 174 88.6 174.7 89C175.4 89.4 176.1 89.7 177 89.9C178.6 90.2 180.2 90.2999 182.1 90C182.9 89.9 183.6 89.7 184.3 89.4C184.9 89.1 185.4 88.8 185.8 88.3C186.2 87.8 186.3 87.2 186.3 86.5C186.3 85.5 185.9 84.6999 185.2 84.1999C184.3 83.5999 183.2 83.0999 181.8 82.6999C180.4 82.2999 178.8 81.8999 177.1 81.5999C175.3 81.2999 173.7 80.7999 172.2 80.1999C170.6 79.5999 169.3 78.6 168.3 77.5C167.2 76.3 166.7 74.6 166.7 72.5C166.7 70.9 167.1 69.3999 167.8 68.1999C168.5 66.9999 169.5 66.1 170.6 65.3C171.7 64.6 173 64.1 174.4 63.7C175.8 63.4 177.2 63.2 178.6 63.2C180.4 63.2 182 63.3999 183.4 63.5999C184.9 63.8999 186.3 64.3999 187.5 65.1999C188.7 65.9999 189.7 67 190.4 68.4C191.1 69.7 191.5 71.4 191.6 73.3V74.0999H185.2V73.4C185.1 72.6 184.9 71.9 184.6 71.4C184.2 70.8 183.8 70.3999 183.2 70.0999C182.6 69.6999 182 69.5 181.2 69.3C179.8 69 178.3 68.9999 176.8 69.1999C176.1 69.2999 175.5 69.5 175 69.8C174.5 70 174.1 70.4 173.8 70.8C173.5 71.2 173.4 71.5999 173.4 72.1999C173.4 72.7999 173.6 73.4 174 73.8C174.5 74.3 175.2 74.7 176 75C176.9 75.4 177.9 75.6 179 75.9C180.2 76.1 181.3 76.3999 182.5 76.6999C183.7 76.9999 185 77.2999 186.2 77.6999C187.4 78.0999 188.6 78.7 189.5 79.3C190.5 80 191.3 80.9 191.9 81.9C192.5 83 192.9 84.3 192.9 85.9C192.9 87.9 192.5 89.5 191.7 90.8C190.9 92.1 189.8 93.2 188.5 94C187.2 94.7999 185.7 95.2999 184.1 95.5999C182.6 95.7999 181.1 95.9 179.5 95.9Z" fill="#CC0202"/>
<path id="Vector_6" d="M209.4 95.3001H204.9C203.6 95.3001 202.4 95.2001 201.5 95C200.5 94.8 199.6 94.4001 198.9 93.9001C198.2 93.3001 197.7 92.5 197.4 91.6C197.1 90.7 197 89.5 197 88V69.7H191.9V63.8H197V54.8H203.4V63.8H209.3V69.7H203.4V87.6C203.4 88.1 203.4 88.5001 203.5 88.8001C203.5 89.0001 203.6 89.1 203.7 89.2C203.8 89.3 204.1 89.4001 204.5 89.4001C204.9 89.4001 205.5 89.5 206.3 89.5H209.3L209.4 95.3001Z" fill="#CC0202"/>
</g>
</g>
</svg>
