<svg width="178" height="112" viewBox="0 0 178 112" fill="none" xmlns="http://www.w3.org/2000/svg">
<g id="Layer_2">
<g id="Layer_1-2">
<path id="Vector" d="M51.4 12.7C54.769 12.7 57.5 9.96894 57.5 6.6C57.5 3.23106 54.769 0.5 51.4 0.5C48.0311 0.5 45.3 3.23106 45.3 6.6C45.3 9.96894 48.0311 12.7 51.4 12.7Z" fill="#1C9AD6"/>
<path id="Vector_2" d="M37.2001 29.7C37.2001 30.6 36.8001 31.6 36.1001 32.2C35.4001 32.9 34.5001 33.2 33.5001 33.2C32.6001 33.2 31.7001 32.8 31.0001 32.2L30.9001 32.1C30.8001 32 30.8001 32 30.7001 31.9C30.6001 31.9 30.5001 31.8 30.5001 31.7C27.9001 29.6 24.7001 28.4 21.3001 28.5C17.0001 28.5 13.7001 30 11.2001 32.9C8.80011 35.8 7.60011 40 7.50011 45.4V84.1001C7.60011 85.1001 7.20011 86.1001 6.40011 86.8C5.00011 88 2.90011 88 1.50011 86.8C0.70011 86.1001 0.300111 85.1001 0.400111 84.1001V45.4C0.400111 42.2 0.800111 39.1 1.70011 36.1C2.50011 33.3 3.80011 30.8 5.60011 28.5C7.30011 26.3 9.60011 24.5001 12.1001 23.3001C14.9001 22.0001 18.1001 21.3 21.2001 21.4C23.9001 21.4 26.6001 22 29.1001 23C31.7001 23.9 34.1001 25.4001 36.0001 27.3001C36.7001 27.8001 37.1001 28.7 37.2001 29.7Z" fill="#535556"/>
<path id="Vector_3" d="M55.0001 84.1C55.1001 85.1 54.7001 86.1 53.9001 86.8C52.5001 88 50.4001 88 49.0001 86.8C48.2001 86.1 47.8001 85.1 47.9001 84.1V26.1C47.8001 25.1 48.2001 24.1 49.0001 23.4C50.4001 22.2 52.5001 22.2 53.9001 23.4C54.7001 24.1 55.1001 25.1 55.0001 26.1V84.1Z" fill="#535556"/>
<path id="Vector_4" d="M116.9 84.1001C117 85.1001 116.5 86.1001 115.8 86.8C114.4 88 112.3 88 110.9 86.8C110.1 86.1001 109.7 85.1001 109.8 84.1001V44.6C109.8 42.5 109.4 40.3 108.5 38.4C105.1 30.2 95.6002 26.4 87.4002 29.8C83.5002 31.4 80.4002 34.5 78.8002 38.4C78.0002 40.4 77.5002 42.5 77.6002 44.6V84.2C77.7002 85.2 77.3002 86.2 76.5002 86.9C75.1002 88.1 73.0002 88.1 71.6002 86.9C70.8002 86.2 70.4002 85.2 70.5002 84.2V44.6C70.5002 41.5 71.1002 38.4 72.3002 35.6C73.5002 32.8 75.1002 30.3 77.2002 28.2C79.3002 26.1 81.8002 24.4 84.5002 23.3C90.3002 20.8 96.9002 20.8 102.7 23.3C111.3 26.9 116.9 35.3 116.8 44.7L116.9 84.1001Z" fill="#535556"/>
<path id="Vector_5" d="M177.6 88.3C177.6 91.4 177 94.5 175.8 97.4C173.5 102.9 169 107.3 163.5 109.7C160.7 110.9 157.6 111.5 154.5 111.5C152.7 111.5 151 111.3 149.3 111C147.4 110.6 145.6 110.1 143.9 109.4C142.1 108.7 140.4 107.8 138.9 106.7C137.4 105.7 136.2 104.4 135.1 102.9C134.7 102.3 134.5 101.6 134.5 100.9C134.5 99.9 134.9 99 135.6 98.3C136.3 97.6001 137.2 97.3 138.2 97.3C138.7 97.3 139.2 97.4001 139.7 97.6001C140.3 97.9001 140.8 98.3 141.1 98.8C141.1 98.9 141.2 99 141.2 99L141.7 99.5C143.3 101.3 145.3 102.5 147.6 103.3C149.9 104 152.2 104.4 154.6 104.4C156.7 104.4 158.9 104 160.8 103.1C164.7 101.5 167.7 98.4 169.4 94.5C170.3 92.5 170.7 90.4 170.7 88.3V80.1C168.6 82.1 166.1 83.7001 163.4 84.8C157.7 87.1001 151.2 87.1 145.5 84.7C140 82.4 135.6 78 133.2 72.4C132 69.5 131.4 66.4 131.4 63.3V44.6C131.4 41.5 132 38.4 133.2 35.6C134.3 32.8 136 30.3 138.1 28.2C140.2 26.1 142.7 24.4 145.4 23.3C151.2 20.8 157.8 20.8 163.6 23.3C172.2 26.9 177.8 35.3 177.7 44.7L177.6 88.3ZM170.5 44.6C170.5 42.5 170.1 40.3 169.3 38.4C165.8 30.2 156.3 26.4 148.1 29.9C144.3 31.5 141.2 34.6 139.6 38.4C138.8 40.4 138.3 42.5 138.4 44.6V63.3C138.4 65.5 138.8 67.6 139.6 69.6C141.2 73.5 144.3 76.5 148.2 78.2C156.4 81.7 165.8 77.8 169.3 69.6C170.2 67.6 170.6 65.5 170.6 63.3V44.6H170.5Z" fill="#535556"/>
</g>
</g>
</svg>
