<svg width="208" height="54" viewBox="0 0 208 54" fill="none" xmlns="http://www.w3.org/2000/svg">
<path id="path30" fill-rule="evenodd" clip-rule="evenodd" d="M126.123 52.1027C123.849 51.164 121.884 49.8328 120.226 48.1113L122.022 45.2968C123.343 46.8955 124.993 48.1351 126.974 49.0104C128.956 49.8871 131.066 50.3257 133.309 50.3257C137.209 50.3257 140.273 49.1262 142.501 46.7268C144.726 44.3283 145.84 40.8983 145.84 36.4376V33.8552C142.739 36.8063 138.868 38.2831 134.23 38.2831C129.469 38.2831 125.477 36.6993 122.252 33.5313C119.027 30.3628 117.415 26.1955 117.415 21.0286C117.415 15.86 119.027 11.6852 122.252 8.50133C125.477 5.31725 129.469 3.72645 134.23 3.72645C138.868 3.72645 142.739 5.20279 145.84 8.15571L146.485 4.87911H149.203V36.2535C149.203 41.7907 147.752 46.0494 144.849 49.0333C142.365 51.5872 139.19 53.0481 135.322 53.4166H131.392C129.568 53.237 127.811 52.7993 126.123 52.1027ZM0 6.3014V37.1305H3.36313V12.2613C4.59168 10.5694 6.18111 9.25544 8.13189 8.31653C10.0811 7.37965 12.2392 6.91031 14.6036 6.91031C18.4742 6.91031 21.4381 7.9173 23.495 9.93107C25.5533 11.9469 26.5816 14.7073 26.5816 18.2133V37.1305H29.9454V18.3981C29.9454 15.8758 29.5226 13.6462 28.6787 11.708C27.8331 9.77003 26.6972 8.2394 25.2689 7.11795C23.8409 5.99446 22.2593 5.14874 20.5235 4.57987C18.788 4.01145 16.9386 3.72645 14.9724 3.72645C10.3347 3.72645 6.46547 5.20279 3.36313 8.15571L2.71744 4.87911L0 6.3014ZM39.8499 8.64088C36.6246 11.8227 35.0118 15.9995 35.0118 21.1666C35.0118 24.55 35.8343 27.5572 37.4776 30.1864C39.1212 32.8154 41.2701 34.8 43.9265 36.1388C46.5845 37.4756 49.4942 38.1449 52.6581 38.1449C55.8816 38.1449 58.83 37.4078 61.5032 35.9312C64.1749 34.4548 66.278 32.4078 67.8136 29.7947L64.0366 29.7017C61.4572 33.085 57.6632 34.7772 52.6581 34.7772C48.6333 34.7772 45.333 33.6084 42.752 31.271C40.3261 29.0263 38.9136 25.9958 38.5138 22.1813H68.4131C68.4131 22.0897 68.4207 21.9271 68.4362 21.6964C68.4517 21.4659 68.4591 21.289 68.4591 21.1666C68.4591 15.9688 66.8696 11.7858 63.6908 8.61736C60.5117 5.44934 56.558 3.86397 51.8279 3.86397C47.0672 3.86397 43.0748 5.45703 39.8499 8.64088ZM38.4676 19.3216C38.8368 15.4759 40.2418 12.4997 42.6829 10.393C45.1256 8.28599 48.1739 7.23263 51.8279 7.23263C55.4832 7.23263 58.5012 8.28599 60.8806 10.393C63.2619 12.4997 64.6363 15.4759 65.0035 19.3216H38.4676ZM78.7787 36.5306C78.0424 35.9156 77.4891 35.3083 77.1202 34.7071C76.7512 34.1076 76.476 33.3391 76.2913 32.4001C76.1068 31.4628 75.9993 30.7315 75.9688 30.2099C75.9381 29.6863 75.9226 28.9643 75.9226 28.0408V7.74042H72.6052L73.0189 5.48169L76.0932 4.70676C76.1075 4.4765 76.0963 2.358 76.0932 0.0592279C76.0898 -2.5458 76.0932 -3.81383 76.0932 -3.81383L79.2862 -5.17889V4.87911H89.3751V7.74042H79.2862V25.1345C79.2862 25.6581 79.2781 26.3643 79.263 27.2566C79.2476 28.1491 79.2399 28.7872 79.2399 29.1719C79.2399 29.5558 79.263 30.0643 79.3091 30.6947C79.3553 31.3255 79.4399 31.7933 79.5627 32.1016C79.6841 32.4078 79.8533 32.7629 80.0685 33.1626C80.2838 33.5628 80.5681 33.8848 80.9218 34.1305C81.2735 34.3773 81.6964 34.6082 82.1881 34.8235C84.0623 35.6537 86.5035 35.3313 89.5134 33.8552L90.8492 36.3465C89.5286 37.2078 87.9623 37.7916 86.1498 38.0985C84.3372 38.4071 82.7864 38.3605 81.4968 37.961C80.4222 37.6229 79.5169 37.1458 78.7787 36.5306ZM99.6945 -11.5V33.5313V37.1305H96.3772V33.5313V-9.37449V-10.0427L99.6945 -11.5ZM107.697 37.1334H111.202V4.84632H107.697V37.1334ZM111.111 -11.5H107.607V-6.85202H111.111V-11.5ZM134.6 7.09442C139.606 7.09442 143.352 8.81731 145.84 12.2613V29.7481C143.352 33.1936 139.606 34.9147 134.6 34.9147C130.515 34.9147 127.19 33.7001 124.626 31.271C122.06 28.8399 120.778 25.4269 120.778 21.0286C120.778 16.6302 122.06 13.2079 124.626 10.7616C127.19 8.31653 130.515 7.09442 134.6 7.09442ZM155.192 37.1305H158.555V12.2613C159.784 10.5694 161.373 9.25544 163.324 8.31653C165.273 7.37965 167.432 6.91031 169.796 6.91031C173.667 6.91031 176.63 7.9173 178.687 9.93107C180.745 11.9469 181.774 14.7073 181.774 18.2133V37.1305H185.138V18.3981C185.138 15.8758 184.715 13.6462 183.871 11.708C183.025 9.77003 181.889 8.2394 180.461 7.11795C179.033 5.99446 177.451 5.14874 175.716 4.57987C173.981 4.01145 172.13 3.72645 170.165 3.72645C165.527 3.72645 161.657 5.20279 158.555 8.15571V-9.99945L155.192 -11.5V37.1305ZM195.457 36.5306C194.72 35.9156 194.167 35.3083 193.798 34.7071C193.429 34.1076 193.154 33.3391 192.97 32.4001C192.785 31.4628 192.677 30.7315 192.647 30.2099C192.616 29.6863 192.6 28.9643 192.6 28.0408V7.74042H189.283V4.87911H192.6C192.632 4.38783 192.647 1.03524 192.647 -5.17889L195.987 -3.8084L195.964 4.87911H206.053V7.74042H195.964V25.1345C195.964 25.6581 195.956 26.3643 195.941 27.2566C195.926 28.1491 195.918 28.7872 195.918 29.1719C195.918 29.5558 195.941 30.0643 195.987 30.6947C196.033 31.3255 196.118 31.7933 196.241 32.1016C196.362 32.4078 196.532 32.7629 196.747 33.1626C196.962 33.5628 197.246 33.8848 197.6 34.1305C197.951 34.3773 198.375 34.6082 198.867 34.8235C200.74 35.6537 203.182 35.3313 206.192 33.8552L207.527 36.3465C206.207 37.2078 204.64 37.7916 202.828 38.0985C201.015 38.4071 199.465 38.3605 198.174 37.961C197.1 37.6229 196.195 37.1458 195.457 36.5306Z" fill="#7473BD"/>
</svg>
