<svg width="414" height="72" viewBox="0 0 414 72" fill="none" xmlns="http://www.w3.org/2000/svg">
<path d="M25.186 71.5C21.7888 71.5 17.3635 71.3559 13.3554 70.2139C7.15697 68.4511 2.47837 64.6594 0.839367 60.0695C-0.322833 56.8321 -0.278134 53.7611 0.973466 50.945L4.47497 43.018C5.62227 40.4347 7.06757 37.8737 8.45327 35.4013C9.01947 34.4146 9.58567 33.3946 10.137 32.3857L24.7688 5.51124C27.421 0.633043 33.828 0.633043 38.4917 0.633043H164.412C187.581 0.633043 210.751 0.633043 233.92 0.633043C265.985 0.633043 298.05 0.633047 330.115 0.644134C346.579 0.644134 363.044 0.655218 379.508 0.655218H379.538C381.058 0.655218 382.592 0.621956 384.216 0.577609C385.855 0.533262 387.539 0.5 389.208 0.5C392.68 0.5 397.209 0.655217 401.277 1.90803C407.028 3.67083 411.454 7.36274 413.152 11.7975C415.253 17.3076 413.078 22.5295 410.664 26.9199C407.833 32.0974 405.062 37.1641 402.26 42.3306C399.623 47.1977 396.941 52.1091 394.423 56.7102C393.648 58.1182 392.888 59.5262 392.113 60.9343C391.532 61.9875 390.966 63.0407 390.385 64.094C390.281 64.2825 390.191 64.4599 390.087 64.6483C388.925 66.7992 387.733 69.0165 384.649 70.3359C382.533 71.245 380.238 71.367 378.078 71.367C377.526 71.367 376.96 71.3559 376.424 71.3448C375.902 71.3337 375.366 71.3226 374.844 71.3226H362.164C351.138 71.3226 340.112 71.3226 329.101 71.3226H317.941C251.234 71.3337 184.527 71.3337 117.819 71.3448C105.08 71.3448 92.3254 71.3559 79.5859 71.3559C64.7008 71.367 49.324 71.367 34.1856 71.367C32.7701 71.367 31.3397 71.4002 29.8348 71.4335C28.2852 71.4667 26.7356 71.5 25.186 71.5ZM164.397 1.73064H38.4768C32.7701 1.73064 28.2405 2.04107 26.1396 5.92146L11.5227 32.7959C10.9714 33.8048 10.3903 34.8359 9.83897 35.8226C8.45327 38.2728 7.02287 40.8117 5.89047 43.3506L2.38897 51.2776C1.22677 53.8941 1.19697 56.7434 2.26977 59.7701C3.78957 64.0164 8.12547 67.5309 13.8769 69.1718C17.6615 70.2472 21.908 70.3913 25.186 70.3913C26.7058 70.3913 28.2554 70.3581 29.7603 70.3248C31.2205 70.2915 32.7254 70.2583 34.1558 70.2583C49.2942 70.2583 64.671 70.2472 79.5561 70.2472C92.2956 70.2472 105.05 70.2361 117.789 70.2361C184.497 70.225 251.204 70.2139 317.911 70.2139H329.072C340.098 70.2139 351.124 70.2139 362.135 70.2139H374.815C375.351 70.2139 375.902 70.225 376.439 70.2361C376.975 70.2472 377.526 70.2583 378.063 70.2583C380.015 70.2583 382.071 70.1474 383.889 69.3713C386.526 68.2405 387.569 66.3003 388.686 64.2381C388.791 64.0497 388.88 63.8612 388.984 63.6838C389.566 62.6305 390.132 61.5773 390.713 60.524C391.488 59.116 392.248 57.708 393.022 56.3C395.54 51.6989 398.222 46.7875 400.86 41.9204C403.661 36.7539 406.432 31.6872 409.263 26.5097C411.573 22.2967 413.674 17.2965 411.692 12.1079C410.128 8.00578 406.015 4.57995 400.681 2.9391C396.837 1.7639 392.516 1.60868 389.178 1.60868C387.524 1.60868 385.855 1.65303 384.231 1.68629C382.667 1.73064 381.043 1.7639 379.508 1.7639H379.478C363.014 1.7639 346.549 1.75282 330.085 1.75282C298.02 1.74173 265.955 1.74173 233.89 1.74173C210.736 1.73064 187.566 1.73064 164.397 1.73064ZM406.909 9.05903C403.363 5.33386 398.252 3.70409 392.352 3.70409C273.003 3.67083 153.669 3.68192 34.3197 3.68192C31.8463 3.68192 29.5517 4.83495 28.6279 6.54232C23.1447 16.6091 17.6764 26.676 12.1932 36.7428C11.0459 38.8493 9.89857 40.9447 8.76617 43.0512C7.94667 44.559 8.84067 45.5458 11.0012 45.5458C11.2992 45.5458 11.5972 45.5458 11.8952 45.5458C26.9144 45.5458 41.9485 45.5458 56.9677 45.5458C58.0852 45.5458 59.1282 45.3573 60.0371 44.8362C61.7059 43.8716 61.7357 42.2641 60.1116 41.2773C59.1878 40.7119 58.1001 40.5123 56.923 40.5123C50.5607 40.5123 44.2133 40.59 37.851 40.4902C32.6062 40.4126 28.5981 38.5832 26.08 35.1241C24.5602 33.0398 24.2473 30.7559 24.5602 28.4055C25.3797 22.1858 32.4423 19.2035 38.0745 19.1924C48.6535 19.1702 59.2325 19.1813 69.8115 19.1813C70.4522 19.1813 71.1078 19.2035 71.7336 19.2811C72.717 19.403 73.3726 19.9795 73.3577 20.7113C73.3577 21.0661 73.2534 21.4541 73.0895 21.7867C72.2551 23.4054 71.376 25.013 70.5267 26.6205C70.3479 26.9642 70.1095 27.1084 69.6029 27.0973C68.3364 27.064 67.0699 27.0862 65.8034 27.0862C58.5471 27.0751 51.3057 27.0751 44.0494 27.064C42.917 27.064 41.8889 27.2747 41.0098 27.8179C39.4751 28.7714 39.4751 30.3125 40.9949 31.277C41.8889 31.8424 42.9319 32.0531 44.0941 32.0531C50.4713 32.042 56.8634 31.9977 63.2406 32.0642C67.5169 32.1085 71.1078 33.4057 73.7749 35.9113C76.591 38.55 77.187 41.6099 76.5016 44.8584C75.4735 49.7587 69.7817 53.3841 63.1065 53.373C43.8408 53.373 24.5602 53.3731 5.29447 53.362H4.20677C4.20677 54.5926 4.10247 55.7567 4.22167 56.8987C4.57927 60.0695 6.23317 62.819 9.46647 64.9588C13.0425 67.3314 17.3635 68.3181 22.0719 68.3292C35.6309 68.3624 49.1899 68.3292 62.7489 68.3181C158.481 68.307 254.199 68.2959 349.932 68.2848C359.84 68.2848 369.749 68.2848 379.657 68.2959C382.056 68.2959 384.261 67.1872 385.17 65.5242C386.988 62.2092 388.791 58.8943 390.594 55.5793C391.234 54.4152 390.445 53.4839 388.776 53.4063C388.478 53.3952 388.18 53.3952 387.882 53.3952C376.528 53.3952 365.189 53.4063 353.835 53.4063C352.926 53.4063 352.003 53.3509 351.094 53.24C346.028 52.6191 341.99 49.3374 341.632 45.5236C341.498 44.0379 341.513 42.5301 341.498 41.0334C341.483 36.6209 341.483 32.1972 341.498 27.7847C341.498 27.4188 341.543 27.0529 341.602 26.6871C342.377 22.4741 347.205 19.2256 352.852 19.2035C362.909 19.1702 372.967 19.1813 383.024 19.1591C383.635 19.1591 383.844 19.2922 383.844 19.7578C383.814 21.4984 383.829 23.228 383.829 24.9686C383.829 26.3434 383.829 26.3434 381.996 26.3434C374.546 26.3434 367.096 26.3434 359.646 26.3545C357.441 26.3545 356.875 26.7758 356.86 28.3612C356.86 28.5053 356.86 28.6605 356.86 28.8047V32.7848H357.769H372.818C374.531 32.7848 376.245 32.7737 377.958 32.7848C379.329 32.7959 380.164 33.4057 380.119 34.4035C380.104 34.7472 380 35.102 379.836 35.4235C379.18 36.6985 378.45 37.9513 377.824 39.2374C377.601 39.703 377.273 39.825 376.632 39.825C370.374 39.8028 364.116 39.8139 357.858 39.8139H356.86C356.86 41.2551 356.89 42.5967 356.845 43.9492C356.786 45.7453 357.158 46.2997 360.034 46.2997C371.537 46.3107 383.024 46.2997 394.527 46.3218C395.347 46.3218 395.719 46.1666 396.032 45.579C399.549 39.06 403.095 32.552 406.671 26.044C408.071 23.483 409.532 20.9441 409.8 18.128C410.142 14.8685 409.502 11.7753 406.909 9.05903ZM125.835 53.362C121.559 53.3398 117.298 53.3509 113.021 53.3509V53.3398C108.894 53.3398 104.767 53.4617 100.654 53.3065C94.7839 53.0959 89.554 51.6435 85.4714 48.3396C82.7298 46.1223 81.2547 43.4393 80.6438 40.5123C79.9137 37.0089 80.018 33.5165 81.4037 30.1129C83.6983 24.4586 88.9133 21.0882 96.5123 19.7135C98.4642 19.3587 100.52 19.2146 102.547 19.1924C109.192 19.1259 115.852 19.2035 122.513 19.148C125.344 19.1259 126.268 20.3676 125.195 22.1415C124.36 23.5162 123.645 24.9353 122.93 26.3434C122.662 26.8866 122.304 27.0862 121.5 27.0862C116.761 27.0529 112.023 27.0529 107.27 27.0751C105.557 27.0862 103.873 27.319 102.293 27.8734C99.5817 28.8379 97.8384 30.4233 96.9742 32.5409C95.961 35.0354 95.9312 37.5632 97.004 40.0578C98.4642 43.4725 102.174 45.4349 107.121 45.4349C113.26 45.446 119.384 45.4349 125.523 45.4349C126.655 45.4349 126.655 45.4349 126.655 46.2997C126.655 48.4394 126.64 50.5903 126.67 52.73C126.685 53.2067 126.506 53.362 125.835 53.362ZM180.757 53.373C176.361 53.3509 171.966 53.3509 167.57 53.373C166.825 53.373 166.676 53.2067 166.676 52.6857C166.706 48.5614 166.676 44.4482 166.706 40.3239C166.706 39.7806 166.557 39.5921 165.768 39.6032C160.135 39.6254 154.488 39.6254 148.856 39.6032C148.215 39.6032 148.007 39.7141 148.007 40.213C148.036 44.3927 148.007 48.5614 148.036 52.7411C148.036 53.2622 147.873 53.4396 147.128 53.4396C142.702 53.4174 138.292 53.4174 133.867 53.4396C133.107 53.4396 132.898 53.2622 132.898 52.7078C132.928 47.2199 132.913 41.7319 132.913 36.2439C132.913 30.8335 132.913 25.4121 132.913 20.0017C132.913 19.1702 132.913 19.1702 134.016 19.1702C138.337 19.1702 142.658 19.1702 146.979 19.1702C148.141 19.1702 148.141 19.1702 148.141 20.0682C148.141 23.6936 148.156 27.3079 148.126 30.9333C148.126 31.399 148.26 31.5764 148.945 31.5653C154.637 31.5431 160.314 31.5431 166.006 31.5653C166.676 31.5653 166.84 31.4101 166.825 30.9333C166.796 27.2414 166.825 23.5384 166.796 19.8465C166.796 19.3032 167.034 19.1591 167.734 19.1591C172.055 19.1813 176.376 19.1702 180.697 19.148C181.413 19.148 181.696 19.2811 181.696 19.8576C181.681 30.8003 181.681 41.7319 181.696 52.6746C181.725 53.2178 181.517 53.373 180.757 53.373ZM225.293 47.7742C224.459 49.5703 223.445 51.3109 222.462 53.0626C222.373 53.2178 221.911 53.3398 221.628 53.3398C218.901 53.362 216.159 53.3509 213.433 53.3509C209.231 53.3509 205.044 53.3509 200.842 53.3509C199.486 53.3509 198.115 53.3952 196.774 53.3398C192.498 53.1513 189.339 50.6679 189.324 47.486C189.31 42.9071 189.324 38.3282 189.324 33.7494C189.324 29.1151 189.339 24.4808 189.31 19.8354C189.31 19.2589 189.548 19.1148 190.278 19.1259C194.644 19.148 199.009 19.1259 203.39 19.1369C204.359 19.1369 204.359 19.1369 204.359 19.8909C204.359 27.8844 204.373 35.8891 204.344 43.8827C204.344 45.069 204.373 45.4903 206.579 45.5014C210.05 45.5236 213.537 45.5014 217.009 45.5014C218.99 45.5014 220.987 45.5679 222.969 45.4792C224.608 45.4016 225.964 46.3551 225.293 47.7742ZM283.209 53.3509C278.59 53.3509 273.971 53.3398 269.352 53.362C268.756 53.362 268.473 53.2289 268.265 52.8187C267.4 51.1668 266.462 49.5481 265.598 47.8962C265.389 47.497 265.121 47.3418 264.51 47.3418C260.889 47.364 257.254 47.3529 253.633 47.3529C253.29 47.3529 252.933 47.3529 252.59 47.3196C250.966 47.1201 250.161 46.2442 250.712 45.069C251.398 43.5945 252.232 42.1532 253.022 40.7008C253.663 39.5367 253.663 39.5367 255.406 39.5367C257.045 39.5367 258.684 39.5367 260.323 39.5367C260.576 39.5367 260.844 39.5145 261.232 39.5034C259.25 35.7672 257.313 32.1196 255.287 28.3168C254.542 29.7027 253.886 30.9222 253.231 32.1529C249.61 38.9934 245.989 45.834 242.398 52.6857C242.13 53.1846 241.817 53.3841 241.072 53.3841C236.557 53.3509 232.028 53.373 227.513 53.373H226.53C226.694 53.0294 226.783 52.7854 226.902 52.5526C232.594 41.9204 238.301 31.2881 243.963 20.6448C244.544 19.5693 245.512 19.1591 246.973 19.1591C252.56 19.1702 258.148 19.1813 263.735 19.1591C265.225 19.1591 266.074 19.6359 266.611 20.6669C271.17 29.2925 275.789 37.8958 280.378 46.5103C281.481 48.5835 282.598 50.6568 283.701 52.7189C283.79 52.8852 283.85 53.0626 283.954 53.3176C283.641 53.3287 283.418 53.3398 283.209 53.3509ZM334.823 53.3509H334.018C323.693 53.3509 313.352 53.4063 303.026 53.3287C297.335 53.2844 292.194 51.9539 287.992 48.9938C285.072 46.9427 283.373 44.3595 282.569 41.4547C281.466 37.4967 281.585 33.5609 283.269 29.7138C285.653 24.2591 290.868 21.0217 298.258 19.7135C300.255 19.3587 302.371 19.2035 304.442 19.1924C313.114 19.1369 321.771 19.1702 330.442 19.1813C330.86 19.1813 331.292 19.2035 331.709 19.2256C333.497 19.3587 334.376 20.2567 333.765 21.4984C332.886 23.2834 331.917 25.0351 330.919 26.7868C330.83 26.9421 330.323 27.0529 330.01 27.0529C323.201 27.064 316.407 27.064 309.597 27.0751C308.986 27.0751 308.361 27.1084 307.75 27.1527C302.877 27.5518 299.719 29.5807 298.482 33.1285C297.707 35.357 297.752 37.5854 298.616 39.7917C299.987 43.2951 303.622 45.3684 308.554 45.446C311.653 45.4903 314.768 45.446 317.867 45.4681C318.418 45.4681 318.597 45.3462 318.582 44.9249C318.552 43.5058 318.567 42.0756 318.567 40.6565C318.567 40.5123 318.537 40.3682 318.522 40.1576C316.123 40.1576 313.814 40.1576 311.504 40.1576C309.269 40.1576 308.316 39.0932 309.135 37.5522C309.851 36.2107 310.566 34.8802 311.266 33.5387C311.43 33.2172 311.668 33.0952 312.145 33.0952C319.476 33.1063 326.792 33.1063 334.123 33.0952C334.629 33.0952 334.883 33.1618 334.883 33.6052C334.868 40.0689 334.883 46.5436 334.897 53.0072C334.868 53.0848 334.853 53.1735 334.823 53.3509Z" fill="#060D91"/>
</svg>
