<svg width="245" height="47" viewBox="0 0 245 47" fill="none" xmlns="http://www.w3.org/2000/svg">
<path id="Vector" d="M19.8426 0.699219H30.7646V36.4114H19.8426V20.0787H11.175V36.2615H0.202881V0.849054H11.2252V15.5834H19.7925V0.699219H19.8426ZM61.5769 16.2328C63.5809 19.6292 63.7813 24.5739 62.3785 28.6196C60.9757 32.6154 58.1199 34.6133 56.2661 35.6122C54.3623 36.6112 51.4063 37.1606 48.5005 37.1606C45.5946 37.1606 41.8871 36.5113 39.382 34.5633C36.877 32.5655 35.1735 30.4177 34.422 27.4709C33.6705 24.524 33.1695 19.2296 36.3259 15.084C39.4822 10.8884 43.4402 10.1392 45.294 9.83953C46.9473 9.53985 47.9994 9.58979 48.1497 9.58979C48.1497 9.58979 51.7069 9.39001 54.5627 10.4888C57.4686 11.5377 59.5728 12.8364 61.5769 16.2328ZM50.254 33.5644C51.6568 32.3657 52.258 29.9682 52.4083 28.32C52.5085 27.4709 52.4585 23.3252 52.4585 19.779C52.4585 17.7811 52.1077 16.2827 51.8071 15.4836C50.9554 13.3858 49.6528 12.237 47.9493 12.5866C47.1477 12.7365 46.2459 13.5356 45.3942 15.3837C44.5425 17.2317 44.793 20.3784 44.6928 24.9735C44.5926 29.5187 44.9934 31.067 46.0455 32.6654C47.1477 34.2137 48.8512 34.7132 50.254 33.5644ZM89.3329 10.4888C85.6756 8.94048 82.0683 9.83953 80.0141 10.8385C77.96 11.8374 76.6072 13.8852 76.5571 13.8852V10.389H66.2864V36.2615H76.507V17.6313C76.3066 17.4315 77.7596 15.8831 79.1123 15.1339C80.5151 14.3847 82.1685 14.7843 82.7697 15.4836C83.5713 16.4825 83.5713 17.5813 83.5713 18.1807V36.2116H93.6917V16.5324C93.5915 15.2838 92.9903 12.0372 89.3329 10.4888ZM123.201 33.1648C121.398 34.913 118.141 36.6611 114.534 37.0607C110.927 37.4103 105.816 37.5602 101.708 34.1138C99.3031 32.1159 98.2009 29.9183 97.4994 27.9204C96.5976 25.423 96.3471 20.6281 98.4013 16.5324C100.455 12.4368 105.616 9.19022 112.029 9.4899C118.442 9.83953 122.099 12.1371 124.354 16.4326C126.308 20.0787 126.007 24.8736 125.957 24.8736L107.52 24.8237V30.0681C107.52 30.0681 107.72 31.117 108.121 31.6664C108.522 32.2158 110.225 34.3636 115.185 33.5644C120.746 32.6653 120.596 28.7695 120.696 28.7695H125.105C125.055 28.8194 125.005 31.4167 123.201 33.1648ZM113.983 13.3358C112.931 12.237 110.977 12.3369 109.975 13.0361C109.173 13.6355 108.271 14.9341 107.971 16.5824C107.67 18.1807 107.72 21.5771 107.72 21.5771H115.786C115.786 21.5271 115.786 20.678 115.786 19.2296C115.786 17.7811 115.536 16.2827 115.386 15.7832C115.285 15.3337 115.035 14.4347 113.983 13.3358ZM217.392 16.4326C219.346 20.0787 219.045 24.8736 218.995 24.8736L200.558 24.8237V30.0681C200.558 30.0681 200.758 31.117 201.159 31.6664C201.56 32.2158 203.263 34.3636 208.273 33.5644C213.834 32.6653 213.684 28.7195 213.784 28.7195H218.193C218.193 28.7195 218.143 31.3168 216.289 33.0649C214.486 34.8131 211.229 36.5612 207.622 36.9608C204.015 37.3104 198.904 37.4603 194.746 34.0139C192.341 32.016 191.239 29.8184 190.537 27.8205C189.636 25.3231 189.385 20.5282 191.439 16.4326C193.493 12.3369 198.654 9.09033 205.067 9.39001C211.43 9.83953 215.137 12.1371 217.392 16.4326ZM200.407 21.1276H208.474C208.474 21.0776 208.474 20.2285 208.474 18.7801C208.474 17.3316 208.223 15.8332 208.073 15.3337C207.923 14.8842 207.722 13.9851 206.62 12.8863C205.568 11.7875 203.614 11.8874 202.612 12.5866C201.81 13.186 200.908 14.4846 200.608 16.1329C200.357 17.7811 200.407 21.1276 200.407 21.1276ZM185.828 10.389L181.92 24.7238L177.511 10.389H168.543L164.585 24.9236L160.076 10.4389L146.048 10.389L140.987 22.6759L136.228 10.389H125.105L135.476 36.8609C135.476 36.8609 135.476 37.1106 135.276 37.8598C135.075 38.6091 134.324 40.507 133.071 41.8057C131.819 43.1542 130.416 42.7547 130.416 42.7547C130.416 42.7547 130.967 42.3051 131.268 41.5559C131.618 40.8067 131.468 39.4581 130.917 38.2594C130.366 37.0607 128.763 36.1616 126.308 36.6112C123.853 37.0607 122.75 39.3083 123.001 41.4061C123.251 43.5039 124.604 45.3519 128.061 45.9513C131.518 46.5506 133.622 45.302 135.526 43.6038C137.43 41.9056 138.983 37.6101 138.983 37.6101L149.755 11.238L157.421 36.2116H166.038L170.196 21.1276L174.906 36.2116H183.323L190.437 10.389H185.828ZM222.051 36.3115H231.871V0.749161H222.051V36.3115ZM234.927 0.749161V36.3115H244.747V0.749161H234.927Z" fill="#AC3E00"/>
</svg>
