<svg width="279" height="84" viewBox="0 0 279 84" fill="none" xmlns="http://www.w3.org/2000/svg">
<path d="M333.274 69.1931C340.938 69.1931 347.2 65.7026 351.121 60.3246L346.908 57.9012C343.865 61.803 339.183 64.3464 333.274 64.3464C323.702 64.3464 316.328 57.683 315.557 49.1573H353.516C353.543 48.6535 353.573 48.1507 353.573 47.68C353.573 35.8009 343.98 26.1647 332.251 26.1647C320.521 26.1647 310.987 35.8021 310.987 47.6811C310.987 59.5602 320.521 69.1942 333.273 69.1942L333.274 69.1931ZM332.282 31.0102C340.276 31.0102 347.225 36.8007 348.757 44.4877H315.804C317.326 36.8018 324.235 31.0102 332.282 31.0102ZM219.31 26.1624C207.55 26.1624 198.015 35.7998 198.015 47.68C198.015 59.5602 207.55 69.1942 219.31 69.1942C226.413 69.1942 232.279 65.6774 235.809 60.2755V68.367H240.604V26.9896H235.809V35.0811C232.279 29.6791 226.413 26.1624 219.31 26.1624ZM219.31 31.0102C228.436 31.0102 235.809 38.4573 235.809 47.68C235.809 56.9027 228.436 64.3464 219.31 64.3464C217.142 64.3489 214.996 63.9196 212.994 63.0829C210.991 62.2463 209.171 61.0187 207.639 59.4706C206.107 57.9225 204.892 56.0842 204.064 54.061C203.235 52.0378 202.81 49.8694 202.813 47.68C202.813 38.4573 210.183 31.0102 219.31 31.0102ZM74.3174 38.0963C65.2747 40.5985 57.1684 46.558 52.1109 55.4082C47.0535 64.2584 45.9961 74.3379 48.3722 83.5L57.2328 78.3289C56.5154 73.7867 56.9452 69.1351 58.4825 64.8057L79.1882 76.8813L84.0545 74.0397V68.3647L63.3487 56.2902C66.2919 52.7794 70.0646 50.076 74.3174 48.4307V38.0963ZM9.7337 38.0963V48.4307C13.9867 50.0756 17.7596 52.779 20.7023 56.2902L0 68.3658V74.0409L4.86628 76.8824L25.5686 64.8068C27.1406 69.2262 27.5206 73.8764 26.8217 78.33L35.6789 83.5012C38.0549 74.3379 36.9987 64.2595 31.9401 55.4093C27.0925 46.9011 19.1091 40.6768 9.7337 38.0963ZM381.186 26.1624C371.526 26.1624 363.695 33.5295 363.695 43.8376V68.367H368.494V43.8376C368.494 36.2054 374.177 31.0102 381.186 31.0102H383V26.1624H381.186ZM140.155 26.1624C130.495 26.1624 122.665 33.5295 122.665 43.8376V68.367H127.463V43.8376C127.463 36.2054 133.144 31.0102 140.155 31.0102C147.167 31.0102 152.852 36.2054 152.852 43.8376V68.367H157.65V43.8376C157.65 36.2054 163.331 31.0102 170.342 31.0102C177.354 31.0102 183.039 36.2054 183.039 43.8376V68.367H187.838V43.8376C187.838 33.5307 180.004 26.1624 170.342 26.1624C164.083 26.1624 158.382 29.4164 155.222 36.0363C152.005 29.4769 146.356 26.1624 140.155 26.1624ZM262.893 12.8677L258.098 15.6441V26.9907H251.662V31.6603H258.098V58.9067C258.098 64.1681 262.193 68.3658 267.4 68.3658H274.533V63.518H267.4C264.94 63.518 262.892 61.4489 262.892 58.8484V31.6592H287.29V58.9055C287.29 64.167 291.383 68.3647 296.531 68.3647H303.728V63.5169H296.531C294.134 63.5169 292.088 61.4477 292.088 58.8473V31.6592H303.728V26.9896H292.09V12.8677L287.292 15.6441V26.9907H262.893V12.8677ZM42.0255 0.500732L37.1593 3.33882V27.49C32.5836 26.6548 28.4106 24.6611 24.941 21.8218L16.0769 26.9884C22.7436 33.6495 31.9096 37.7615 42.0267 37.7615C52.1437 37.7615 61.3097 33.6495 67.9764 26.9884L59.1158 21.8218C55.5791 24.7205 51.3753 26.6701 46.8941 27.49V3.33882L42.0255 0.500732Z" fill="black"/>
</svg>
