<svg width="1518" height="887" viewBox="0 0 1518 887" fill="none" xmlns="http://www.w3.org/2000/svg">
<rect width="6.48" height="102.06" transform="matrix(-1 0 0 1 225.64 25.3804)" fill="#777777"/>
<path d="M228.069 26.4598L221.319 24.0298L215.109 27.5398L214.029 34.5598L217.539 39.1498L225.099 39.9598L230.229 35.6398V29.1598L228.069 26.4598Z" fill="#777777"/>
<path d="M190.174 31.8518C190.078 31.9477 190.078 32.1031 190.174 32.199L199.888 41.9132C202.764 44.7889 207.426 44.7889 210.302 41.9132L214.983 37.2323C217.858 34.3566 217.858 29.6942 214.983 26.8185L210.302 22.1375C207.426 19.2619 202.764 19.2619 199.888 22.1375L190.174 31.8518Z" fill="#EAEAEA"/>
<path d="M212.138 9.88786C209.262 12.7635 209.262 17.4259 212.138 20.3016L216.819 24.9826C219.694 27.8582 224.357 27.8583 227.232 24.9826L231.913 20.3016C234.789 17.4259 234.789 12.7635 231.913 9.88786L222.199 0.17357C222.103 0.0777144 221.948 0.0777144 221.852 0.173571L212.138 9.88786Z" fill="#CBC5EA"/>
<path d="M212.546 43.7492C209.67 46.6249 209.67 51.2872 212.546 54.1629L222.26 63.8772C222.356 63.9731 222.511 63.9731 222.607 63.8772L232.117 54.3669C234.993 51.4912 234.993 46.8288 232.117 43.9532L227.436 39.2722C224.561 36.3965 219.898 36.3965 217.023 39.2722L212.546 43.7492Z" fill="#73628A"/>
<path d="M229.326 27.1213C226.45 29.9969 226.45 34.6593 229.326 37.535L233.936 42.1451C236.812 45.0207 241.474 45.0207 244.35 42.1451L253.993 32.5017C254.089 32.4058 254.089 32.2504 253.993 32.1546L244.35 22.5112C241.474 19.6355 236.812 19.6355 233.936 22.5112L229.326 27.1213Z" fill="#313D5A"/>
<path fill-rule="evenodd" clip-rule="evenodd" d="M213.688 27.5221L206.495 27.5221C204.326 27.5221 202.568 25.7638 202.568 23.5949L202.568 12.475L213.688 12.475C215.857 12.475 217.615 14.2333 217.615 16.4023L217.615 23.5949C217.615 25.7638 215.857 27.5221 213.688 27.5221ZM206.495 30.9585C202.429 30.9585 199.132 27.6617 199.132 23.5949L199.132 9.28412C199.132 9.14856 199.242 9.03866 199.377 9.03866L213.688 9.03866C217.755 9.03866 221.052 12.3355 221.052 16.4023L221.052 23.5949C221.052 27.6617 217.755 30.9585 213.688 30.9585L206.495 30.9585Z" fill="#CBC5EA"/>
<path fill-rule="evenodd" clip-rule="evenodd" d="M202.568 51.6994L202.568 40.5795C202.568 38.4106 204.326 36.6523 206.495 36.6523L213.688 36.6523C215.857 36.6523 217.615 38.4106 217.615 40.5795L217.615 47.7721C217.615 49.9411 215.857 51.6994 213.688 51.6994L202.568 51.6994ZM199.377 55.1357C199.242 55.1357 199.132 55.0258 199.132 54.8903L199.132 40.5795C199.132 36.5127 202.429 33.2159 206.495 33.2159L213.688 33.2159C217.755 33.2159 221.052 36.5127 221.052 40.5795L221.052 47.7721C221.052 51.8389 217.755 55.1357 213.688 55.1357L199.377 55.1357Z" fill="#EAEAEA"/>
<path fill-rule="evenodd" clip-rule="evenodd" d="M241.659 51.6974L230.539 51.6974C228.37 51.6974 226.612 49.9391 226.612 47.7702L226.612 40.5776C226.612 38.4086 228.37 36.6503 230.539 36.6503L237.732 36.6503C239.901 36.6503 241.659 38.4086 241.659 40.5776L241.659 51.6974ZM230.539 55.1338C226.473 55.1338 223.176 51.837 223.176 47.7702L223.176 40.5776C223.176 36.5108 226.473 33.214 230.539 33.214L237.732 33.214C241.799 33.214 245.096 36.5108 245.096 40.5776L245.096 54.8883C245.096 55.0239 244.986 55.1338 244.85 55.1338L230.539 55.1338Z" fill="#73628A"/>
<path fill-rule="evenodd" clip-rule="evenodd" d="M237.668 27.5221L230.475 27.5221C228.306 27.5221 226.548 25.7638 226.548 23.5949L226.548 16.4023C226.548 14.2333 228.306 12.475 230.475 12.475L241.595 12.475L241.595 23.5949C241.595 25.7638 239.837 27.5221 237.668 27.5221ZM230.475 30.9585C226.408 30.9585 223.111 27.6617 223.111 23.5949L223.111 16.4023C223.111 12.3355 226.408 9.03866 230.475 9.03866L244.786 9.03866C244.921 9.03866 245.031 9.14855 245.031 9.28411L245.031 23.5949C245.031 27.6617 241.734 30.9585 237.668 30.9585L230.475 30.9585Z" fill="#313D5A"/>
<g filter="url(#filter0_f_542_8040)">
<rect width="4.93219" height="77.682" transform="matrix(-1 0 0 1 272.128 57.3184)" fill="#777777"/>
<path d="M273.976 58.1406L268.838 56.291L264.112 58.9626L263.29 64.3058L265.961 67.7995L271.715 68.416L275.62 65.1279V60.1957L273.976 58.1406Z" fill="#777777"/>
<path d="M245.133 62.2444C245.06 62.3173 245.06 62.4356 245.133 62.5086L252.527 69.9025C254.716 72.0913 258.265 72.0913 260.453 69.9025L264.016 66.3396C266.205 64.1508 266.205 60.6021 264.016 58.4133L260.453 54.8504C258.265 52.6616 254.716 52.6616 252.527 54.8504L245.133 62.2444Z" fill="#EAEAEA"/>
<path d="M261.851 45.5261C259.662 47.7149 259.662 51.2636 261.851 53.4524L265.414 57.0153C267.603 59.2041 271.151 59.2041 273.34 57.0153L276.903 53.4524C279.092 51.2636 279.092 47.7149 276.903 45.5261L269.509 38.1322C269.436 38.0592 269.318 38.0592 269.245 38.1322L261.851 45.5261Z" fill="#CBC5EA"/>
<path d="M262.161 71.2991C259.973 73.4878 259.973 77.0366 262.161 79.2254L269.555 86.6193C269.628 86.6923 269.747 86.6923 269.82 86.6193L277.058 79.3806C279.247 77.1918 279.247 73.6431 277.058 71.4543L273.495 67.8914C271.307 65.7026 267.758 65.7026 265.569 67.8914L262.161 71.2991Z" fill="#73628A"/>
<path d="M274.935 58.6438C272.746 60.8326 272.746 64.3813 274.935 66.5701L278.444 70.079C280.633 72.2678 284.181 72.2678 286.37 70.079L293.71 62.739C293.783 62.6661 293.783 62.5478 293.71 62.4748L286.37 55.1349C284.181 52.9461 280.633 52.9461 278.444 55.1349L274.935 58.6438Z" fill="#313D5A"/>
<path fill-rule="evenodd" clip-rule="evenodd" d="M263.03 58.9479L257.555 58.9479C255.904 58.9479 254.566 57.6096 254.566 55.9587L254.566 47.4949L263.03 47.4949C264.68 47.4949 266.019 48.8333 266.019 50.4841L266.019 55.9587C266.019 57.6096 264.68 58.9479 263.03 58.9479ZM257.555 61.5635C254.46 61.5635 251.95 59.0541 251.95 55.9587L251.95 45.0662C251.95 44.963 252.034 44.8794 252.137 44.8794L263.03 44.8794C266.125 44.8794 268.634 47.3887 268.634 50.4841L268.634 55.9587C268.634 59.0541 266.125 61.5635 263.03 61.5635L257.555 61.5635Z" fill="#CBC5EA"/>
<path fill-rule="evenodd" clip-rule="evenodd" d="M254.566 77.3508L254.566 68.887C254.566 67.2361 255.904 65.8978 257.555 65.8978L263.03 65.8978C264.68 65.8978 266.019 67.2361 266.019 68.887L266.019 74.3616C266.019 76.0125 264.68 77.3508 263.03 77.3508L254.566 77.3508ZM252.137 79.9663C252.034 79.9663 251.95 79.8827 251.95 79.7795L251.95 68.887C251.95 65.7916 254.46 63.2822 257.555 63.2822L263.03 63.2822C266.125 63.2822 268.634 65.7916 268.634 68.887L268.634 74.3616C268.634 77.457 266.125 79.9663 263.03 79.9663L252.137 79.9663Z" fill="#EAEAEA"/>
<path fill-rule="evenodd" clip-rule="evenodd" d="M284.32 77.3498L275.856 77.3498C274.205 77.3498 272.867 76.0115 272.867 74.3606L272.867 68.886C272.867 67.2351 274.205 65.8968 275.856 65.8968L281.33 65.8968C282.981 65.8968 284.32 67.2351 284.32 68.886L284.32 77.3498ZM275.856 79.9653C272.76 79.9653 270.251 77.456 270.251 74.3606L270.251 68.886C270.251 65.7906 272.76 63.2813 275.856 63.2813L281.33 63.2813C284.426 63.2813 286.935 65.7906 286.935 68.886L286.935 79.7785C286.935 79.8817 286.851 79.9653 286.748 79.9653L275.856 79.9653Z" fill="#73628A"/>
<path fill-rule="evenodd" clip-rule="evenodd" d="M281.282 58.9479L275.808 58.9479C274.157 58.9479 272.819 57.6096 272.819 55.9587L272.819 50.4841C272.819 48.8333 274.157 47.4949 275.808 47.4949L284.272 47.4949L284.272 55.9587C284.272 57.6096 282.933 58.9479 281.282 58.9479ZM275.808 61.5635C272.712 61.5635 270.203 59.0541 270.203 55.9587L270.203 50.4841C270.203 47.3887 272.712 44.8794 275.808 44.8794L286.7 44.8794C286.804 44.8794 286.887 44.963 286.887 45.0662L286.887 55.9587C286.887 59.0541 284.378 61.5635 281.282 61.5635L275.808 61.5635Z" fill="#313D5A"/>
</g>
<g filter="url(#filter1_f_542_8040)">
<rect width="3.83179" height="60.3507" transform="matrix(-1 0 0 1 309.075 83.0078)" fill="#777777"/>
<path d="M310.511 83.6464L306.519 82.2095L302.847 84.285L302.209 88.4361L304.284 91.1503L308.755 91.6293L311.788 89.0748V85.243L310.511 83.6464Z" fill="#777777"/>
<path d="M288.104 86.8354C288.047 86.892 288.047 86.9839 288.104 87.0406L293.848 92.7849C295.548 94.4854 298.305 94.4854 300.006 92.7849L302.774 90.0169C304.474 88.3165 304.474 85.5595 302.774 83.859L300.006 81.091C298.305 79.3906 295.548 79.3906 293.848 81.091L288.104 86.8354Z" fill="#EAEAEA"/>
<path d="M301.092 73.8468C299.391 75.5473 299.391 78.3043 301.092 80.0047L303.86 82.7727C305.56 84.4732 308.317 84.4732 310.018 82.7727L312.786 80.0047C314.486 78.3043 314.486 75.5473 312.786 73.8468L307.041 68.1025C306.985 68.0458 306.893 68.0458 306.836 68.1025L301.092 73.8468Z" fill="#CBC5EA"/>
<path d="M301.332 93.8698C299.631 95.5702 299.631 98.3272 301.332 100.028L307.076 105.772C307.133 105.829 307.225 105.829 307.281 105.772L312.905 100.148C314.606 98.4478 314.606 95.6909 312.905 93.9904L310.137 91.2224C308.437 89.522 305.68 89.5219 303.979 91.2224L301.332 93.8698Z" fill="#73628A"/>
<path d="M311.256 84.0377C309.555 85.7382 309.555 88.4952 311.256 90.1957L313.982 92.9217C315.682 94.6222 318.439 94.6222 320.14 92.9217L325.842 87.2193C325.899 87.1626 325.899 87.0707 325.842 87.0141L320.14 81.3117C318.439 79.6112 315.682 79.6112 313.982 81.3117L311.256 84.0377Z" fill="#313D5A"/>
<path fill-rule="evenodd" clip-rule="evenodd" d="M302.007 84.2737L297.754 84.2737C296.471 84.2737 295.431 83.2339 295.431 81.9514L295.431 75.3759L302.007 75.3759C303.289 75.3759 304.329 76.4156 304.329 77.6982L304.329 81.9514C304.329 83.2339 303.289 84.2737 302.007 84.2737ZM297.754 86.3057C295.349 86.3057 293.399 84.3562 293.399 81.9514L293.399 73.489C293.399 73.4089 293.464 73.3439 293.545 73.3439L302.007 73.3439C304.412 73.3439 306.361 75.2934 306.361 77.6982L306.361 81.9514C306.361 84.3562 304.412 86.3057 302.007 86.3057L297.754 86.3057Z" fill="#CBC5EA"/>
<path fill-rule="evenodd" clip-rule="evenodd" d="M295.431 98.571L295.431 91.9956C295.431 90.713 296.471 89.6733 297.754 89.6733L302.007 89.6733C303.289 89.6733 304.329 90.713 304.329 91.9956L304.329 96.2487C304.329 97.5313 303.289 98.571 302.007 98.571L295.431 98.571ZM293.545 100.603C293.464 100.603 293.399 100.538 293.399 100.458L293.399 91.9956C293.399 89.5907 295.349 87.6413 297.754 87.6413L302.007 87.6413C304.412 87.6413 306.361 89.5907 306.361 91.9956L306.361 96.2487C306.361 98.6535 304.412 100.603 302.007 100.603L293.545 100.603Z" fill="#EAEAEA"/>
<path fill-rule="evenodd" clip-rule="evenodd" d="M318.547 98.57L311.971 98.57C310.689 98.57 309.649 97.5303 309.649 96.2478L309.649 91.9946C309.649 90.712 310.689 89.6723 311.971 89.6723L316.225 89.6723C317.507 89.6723 318.547 90.712 318.547 91.9946L318.547 98.57ZM311.971 100.602C309.567 100.602 307.617 98.6526 307.617 96.2478L307.617 91.9946C307.617 89.5898 309.567 87.6403 311.971 87.6403L316.225 87.6403C318.629 87.6403 320.579 89.5898 320.579 91.9946L320.579 100.457C320.579 100.537 320.514 100.602 320.434 100.602L311.971 100.602Z" fill="#73628A"/>
<path fill-rule="evenodd" clip-rule="evenodd" d="M316.188 84.2737L311.934 84.2737C310.652 84.2737 309.612 83.2339 309.612 81.9514L309.612 77.6982C309.612 76.4156 310.652 75.3759 311.934 75.3759L318.51 75.3759L318.51 81.9514C318.51 83.2339 317.47 84.2737 316.188 84.2737ZM311.934 86.3057C309.53 86.3057 307.58 84.3562 307.58 81.9514L307.58 77.6982C307.58 75.2934 309.53 73.3439 311.934 73.3439L320.397 73.3439C320.477 73.3439 320.542 73.4089 320.542 73.489L320.542 81.9514C320.542 84.3562 318.592 86.3057 316.188 86.3057L311.934 86.3057Z" fill="#313D5A"/>
</g>
<rect x="1317" y="207" width="12" height="189" fill="#777777"/>
<path d="M1312.5 209L1325 204.5L1336.5 211L1338.5 224L1332 232.5L1318 234L1308.5 226V214L1312.5 209Z" fill="#777777"/>
<path d="M1382.68 218.985C1382.86 219.162 1382.86 219.45 1382.68 219.628L1364.69 237.617C1359.37 242.942 1350.73 242.942 1345.41 237.617L1336.74 228.948C1331.41 223.623 1331.41 214.989 1336.74 209.664L1345.41 200.995C1350.73 195.67 1359.37 195.67 1364.69 200.995L1382.68 218.985Z" fill="#EAEAEA"/>
<path d="M1342.01 178.311C1347.33 183.636 1347.33 192.27 1342.01 197.595L1333.34 206.264C1328.01 211.589 1319.38 211.589 1314.05 206.264L1305.39 197.595C1300.06 192.27 1300.06 183.636 1305.39 178.311L1323.37 160.321C1323.55 160.144 1323.84 160.144 1324.02 160.321L1342.01 178.311Z" fill="#CBC5EA"/>
<path d="M1341.25 241.017C1346.58 246.342 1346.58 254.976 1341.25 260.302L1323.26 278.291C1323.08 278.468 1322.8 278.468 1322.62 278.291L1305.01 260.679C1299.68 255.354 1299.68 246.72 1305.01 241.395L1313.68 232.726C1319 227.401 1327.64 227.401 1332.96 232.726L1341.25 241.017Z" fill="#73628A"/>
<path d="M1310.18 210.225C1315.5 215.551 1315.5 224.185 1310.18 229.51L1301.64 238.047C1296.32 243.372 1287.68 243.372 1282.36 238.047L1264.5 220.189C1264.32 220.012 1264.32 219.724 1264.5 219.546L1282.36 201.688C1287.68 196.363 1296.32 196.363 1301.64 201.688L1310.18 210.225Z" fill="#313D5A"/>
<path fill-rule="evenodd" clip-rule="evenodd" d="M1339.14 210.967L1352.46 210.967C1356.47 210.967 1359.73 207.711 1359.73 203.694L1359.73 183.102L1339.14 183.102C1335.12 183.102 1331.86 186.358 1331.86 190.375L1331.86 203.694C1331.86 207.711 1335.12 210.967 1339.14 210.967ZM1352.46 217.331C1359.99 217.331 1366.09 211.225 1366.09 203.694L1366.09 177.193C1366.09 176.942 1365.89 176.738 1365.64 176.738L1339.14 176.738C1331.61 176.738 1325.5 182.843 1325.5 190.375L1325.5 203.694C1325.5 211.225 1331.61 217.331 1339.14 217.331L1352.46 217.331Z" fill="#CBC5EA"/>
<path fill-rule="evenodd" clip-rule="evenodd" d="M1359.73 255.74L1359.73 235.148C1359.73 231.131 1356.47 227.875 1352.46 227.875L1339.14 227.875C1335.12 227.875 1331.86 231.131 1331.86 235.148L1331.86 248.467C1331.86 252.484 1335.12 255.74 1339.14 255.74L1359.73 255.74ZM1365.64 262.104C1365.89 262.104 1366.09 261.9 1366.09 261.649L1366.09 235.148C1366.09 227.616 1359.99 221.511 1352.46 221.511L1339.14 221.511C1331.61 221.511 1325.5 227.616 1325.5 235.148L1325.5 248.467C1325.5 255.998 1331.61 262.104 1339.14 262.104L1365.64 262.104Z" fill="#EAEAEA"/>
<path fill-rule="evenodd" clip-rule="evenodd" d="M1287.34 255.736L1307.93 255.736C1311.95 255.736 1315.2 252.48 1315.2 248.463L1315.2 235.144C1315.2 231.127 1311.95 227.871 1307.93 227.871L1294.61 227.871C1290.59 227.871 1287.34 231.127 1287.34 235.144L1287.34 255.736ZM1307.93 262.1C1315.46 262.1 1321.57 255.994 1321.57 248.463L1321.57 235.144C1321.57 227.613 1315.46 221.507 1307.93 221.507L1294.61 221.507C1287.08 221.507 1280.97 227.613 1280.97 235.144L1280.97 261.645C1280.97 261.896 1281.18 262.1 1281.43 262.1L1307.93 262.1Z" fill="#73628A"/>
<path fill-rule="evenodd" clip-rule="evenodd" d="M1294.73 210.967L1308.05 210.967C1312.07 210.967 1315.32 207.711 1315.32 203.694L1315.32 190.375C1315.32 186.358 1312.07 183.102 1308.05 183.102L1287.46 183.102L1287.46 203.694C1287.46 207.711 1290.71 210.967 1294.73 210.967ZM1308.05 217.331C1315.58 217.331 1321.69 211.225 1321.69 203.694L1321.69 190.375C1321.69 182.843 1315.58 176.738 1308.05 176.738L1281.55 176.738C1281.3 176.738 1281.09 176.942 1281.09 177.193L1281.09 203.694C1281.09 211.225 1287.2 217.331 1294.73 217.331L1308.05 217.331Z" fill="#313D5A"/>
<g filter="url(#filter2_f_542_8040)">
<rect x="1227.51" y="247.078" width="9.17257" height="144.468" fill="#777777"/>
<path d="M1224.07 248.608L1233.63 245.168L1242.42 250.136L1243.95 260.073L1238.98 266.571L1228.28 267.717L1221.02 261.602V252.43L1224.07 248.608Z" fill="#777777"/>
<path d="M1277.72 256.24C1277.85 256.375 1277.85 256.595 1277.72 256.731L1263.97 270.482C1259.9 274.552 1253.3 274.552 1249.23 270.482L1242.6 263.856C1238.53 259.785 1238.53 253.185 1242.6 249.115L1249.23 242.489C1253.3 238.418 1259.9 238.418 1263.97 242.489L1277.72 256.24Z" fill="#EAEAEA"/>
<path d="M1246.63 225.149C1250.7 229.22 1250.7 235.819 1246.63 239.89L1240 246.516C1235.93 250.587 1229.33 250.587 1225.26 246.516L1218.63 239.89C1214.56 235.819 1214.56 229.22 1218.63 225.149L1232.38 211.398C1232.52 211.263 1232.74 211.263 1232.88 211.398L1246.63 225.149Z" fill="#CBC5EA"/>
<path d="M1246.05 273.08C1250.12 277.151 1250.12 283.751 1246.05 287.821L1232.3 301.572C1232.16 301.708 1231.94 301.708 1231.81 301.572L1218.35 288.11C1214.27 284.039 1214.27 277.44 1218.35 273.369L1224.97 266.743C1229.04 262.672 1235.64 262.672 1239.71 266.743L1246.05 273.08Z" fill="#73628A"/>
<path d="M1222.3 249.545C1226.37 253.615 1226.37 260.215 1222.3 264.285L1215.77 270.811C1211.7 274.882 1205.1 274.882 1201.03 270.811L1187.38 257.161C1187.24 257.025 1187.24 256.805 1187.38 256.669L1201.03 243.019C1205.1 238.948 1211.7 238.948 1215.77 243.019L1222.3 249.545Z" fill="#313D5A" fill-opacity="0.9"/>
<path fill-rule="evenodd" clip-rule="evenodd" d="M1244.43 250.11L1254.61 250.11C1257.68 250.11 1260.17 247.621 1260.17 244.551L1260.17 228.811L1244.43 228.811C1241.36 228.811 1238.87 231.3 1238.87 234.37L1238.87 244.551C1238.87 247.621 1241.36 250.11 1244.43 250.11ZM1254.61 254.975C1260.37 254.975 1265.04 250.308 1265.04 244.551L1265.04 224.294C1265.04 224.102 1264.88 223.947 1264.69 223.947L1244.43 223.947C1238.68 223.947 1234.01 228.613 1234.01 234.37L1234.01 244.551C1234.01 250.308 1238.68 254.975 1244.43 254.975L1254.61 254.975Z" fill="#CBC5EA"/>
<path fill-rule="evenodd" clip-rule="evenodd" d="M1260.17 284.335L1260.17 268.594C1260.17 265.524 1257.68 263.035 1254.61 263.035L1244.43 263.035C1241.36 263.035 1238.87 265.524 1238.87 268.594L1238.87 278.775C1238.87 281.846 1241.36 284.334 1244.43 284.334L1260.17 284.335ZM1264.69 289.199C1264.88 289.199 1265.04 289.043 1265.04 288.851L1265.04 268.594C1265.04 262.837 1260.37 258.171 1254.61 258.171L1244.43 258.171C1238.68 258.171 1234.01 262.837 1234.01 268.594L1234.01 278.775C1234.01 284.532 1238.68 289.199 1244.43 289.199L1264.69 289.199Z" fill="#EAEAEA"/>
<path fill-rule="evenodd" clip-rule="evenodd" d="M1204.84 284.331L1220.58 284.331C1223.65 284.331 1226.14 281.842 1226.14 278.772L1226.14 268.591C1226.14 265.52 1223.65 263.032 1220.58 263.032L1210.4 263.032C1207.33 263.032 1204.84 265.52 1204.84 268.591L1204.84 284.331ZM1220.58 289.195C1226.34 289.195 1231 284.529 1231 278.772L1231 268.591C1231 262.834 1226.34 258.167 1220.58 258.167L1210.4 258.167C1204.64 258.167 1199.97 262.834 1199.97 268.591L1199.97 288.848C1199.97 289.04 1200.13 289.195 1200.32 289.195L1220.58 289.195Z" fill="#73628A"/>
<path fill-rule="evenodd" clip-rule="evenodd" d="M1210.49 250.11L1220.67 250.11C1223.74 250.11 1226.23 247.621 1226.23 244.551L1226.23 234.37C1226.23 231.3 1223.74 228.811 1220.67 228.811L1204.93 228.811L1204.93 244.551C1204.93 247.621 1207.42 250.11 1210.49 250.11ZM1220.67 254.975C1226.43 254.975 1231.09 250.308 1231.09 244.551L1231.09 234.37C1231.09 228.613 1226.43 223.947 1220.67 223.947L1200.41 223.947C1200.22 223.947 1200.06 224.102 1200.06 224.294L1200.06 244.551C1200.06 250.308 1204.73 254.975 1210.49 254.975L1220.67 254.975Z" fill="#313D5A" fill-opacity="0.9"/>
</g>
<g filter="url(#filter3_f_542_8040)">
<rect x="1156.44" y="294.995" width="6.89216" height="108.551" fill="#777777"/>
<path d="M1153.86 296.144L1161.04 293.56L1167.64 297.293L1168.79 304.759L1165.06 309.641L1157.02 310.503L1151.56 305.908V299.016L1153.86 296.144Z" fill="#777777"/>
<path d="M1194.17 301.879C1194.27 301.981 1194.27 302.146 1194.17 302.248L1183.83 312.58C1180.78 315.639 1175.82 315.639 1172.76 312.58L1167.78 307.602C1164.72 304.543 1164.72 299.584 1167.78 296.525L1172.76 291.547C1175.82 288.488 1180.78 288.488 1183.83 291.547L1194.17 301.879Z" fill="#EAEAEA"/>
<path d="M1170.8 278.518C1173.86 281.576 1173.86 286.535 1170.8 289.594L1165.82 294.572C1162.77 297.631 1157.81 297.631 1154.75 294.572L1149.77 289.594C1146.71 286.535 1146.71 281.576 1149.77 278.518L1160.1 268.185C1160.2 268.084 1160.37 268.084 1160.47 268.185L1170.8 278.518Z" fill="#CBC5EA"/>
<path d="M1170.37 314.533C1173.43 317.591 1173.43 322.55 1170.37 325.609L1160.04 335.941C1159.94 336.043 1159.77 336.043 1159.67 335.941L1149.55 325.826C1146.5 322.767 1146.5 317.808 1149.55 314.75L1154.53 309.771C1157.59 306.712 1162.55 306.712 1165.61 309.771L1170.37 314.533Z" fill="#73628A"/>
<path d="M1152.52 296.848C1155.58 299.907 1155.58 304.866 1152.52 307.924L1147.62 312.828C1144.56 315.886 1139.6 315.886 1136.54 312.828L1126.28 302.571C1126.18 302.469 1126.18 302.304 1126.28 302.202L1136.54 291.945C1139.6 288.886 1144.56 288.886 1147.62 291.945L1152.52 296.848Z" fill="#313D5A"/>
<path fill-rule="evenodd" clip-rule="evenodd" d="M1169.15 297.274L1176.8 297.274C1179.11 297.274 1180.98 295.404 1180.98 293.097L1180.98 281.27L1169.15 281.27C1166.85 281.27 1164.98 283.14 1164.98 285.447L1164.98 293.097C1164.98 295.404 1166.85 297.274 1169.15 297.274ZM1176.8 300.929C1181.13 300.929 1184.64 297.422 1184.64 293.097L1184.64 277.876C1184.64 277.732 1184.52 277.615 1184.38 277.615L1169.15 277.615C1164.83 277.615 1161.32 281.121 1161.32 285.447L1161.32 293.097C1161.32 297.422 1164.83 300.929 1169.15 300.929L1176.8 300.929Z" fill="#CBC5EA"/>
<path fill-rule="evenodd" clip-rule="evenodd" d="M1180.98 322.989L1180.98 311.162C1180.98 308.855 1179.11 306.985 1176.8 306.985L1169.15 306.985C1166.85 306.985 1164.98 308.855 1164.98 311.162L1164.98 318.812C1164.98 321.119 1166.85 322.989 1169.15 322.989L1180.98 322.989ZM1184.38 326.644C1184.52 326.644 1184.64 326.527 1184.64 326.383L1184.64 311.162C1184.64 306.837 1181.13 303.33 1176.8 303.33L1169.15 303.33C1164.83 303.33 1161.32 306.836 1161.32 311.162L1161.32 318.812C1161.32 323.138 1164.83 326.644 1169.15 326.644L1184.38 326.644Z" fill="#EAEAEA"/>
<path fill-rule="evenodd" clip-rule="evenodd" d="M1139.4 322.987L1151.23 322.987C1153.54 322.987 1155.41 321.117 1155.41 318.81L1155.41 311.16C1155.41 308.853 1153.54 306.982 1151.23 306.982L1143.58 306.982C1141.27 306.982 1139.4 308.853 1139.4 311.16L1139.4 322.987ZM1151.23 326.642C1155.56 326.642 1159.06 323.135 1159.06 318.81L1159.06 311.16C1159.06 306.834 1155.56 303.328 1151.23 303.328L1143.58 303.328C1139.26 303.328 1135.75 306.834 1135.75 311.16L1135.75 326.381C1135.75 326.525 1135.87 326.642 1136.01 326.642L1151.23 326.642Z" fill="#73628A"/>
<path fill-rule="evenodd" clip-rule="evenodd" d="M1143.65 297.274L1151.3 297.274C1153.61 297.274 1155.48 295.404 1155.48 293.097L1155.48 285.447C1155.48 283.14 1153.61 281.27 1151.3 281.27L1139.47 281.27L1139.47 293.097C1139.47 295.404 1141.34 297.274 1143.65 297.274ZM1151.3 300.929C1155.63 300.929 1159.13 297.422 1159.13 293.097L1159.13 285.447C1159.13 281.121 1155.63 277.615 1151.3 277.615L1136.08 277.615C1135.93 277.615 1135.82 277.732 1135.82 277.876L1135.82 293.097C1135.82 297.422 1139.32 300.929 1143.65 300.929L1151.3 300.929Z" fill="#313D5A"/>
</g>
<g filter="url(#filter4_f_542_8040)">
<rect x="1101.15" y="332.418" width="5.46843" height="86.1278" fill="#777777"/>
<path d="M1099.1 333.33L1104.8 331.28L1110.04 334.242L1110.95 340.166L1107.99 344.039L1101.61 344.723L1097.28 341.077V335.609L1099.1 333.33Z" fill="#777777"/>
<path d="M1131.08 337.88C1131.17 337.961 1131.17 338.092 1131.08 338.173L1122.89 346.371C1120.46 348.798 1116.53 348.798 1114.1 346.371L1110.15 342.421C1107.72 339.994 1107.72 336.06 1110.15 333.633L1114.1 329.683C1116.53 327.256 1120.46 327.256 1122.89 329.683L1131.08 337.88Z" fill="#EAEAEA"/>
<path d="M1112.55 319.345C1114.97 321.772 1114.97 325.707 1112.55 328.133L1108.6 332.084C1106.17 334.51 1102.24 334.51 1099.81 332.084L1095.86 328.133C1093.43 325.707 1093.43 321.772 1095.86 319.345L1104.06 311.147C1104.14 311.066 1104.27 311.066 1104.35 311.147L1112.55 319.345Z" fill="#CBC5EA"/>
<path d="M1112.2 347.92C1114.63 350.347 1114.63 354.282 1112.2 356.708L1104.01 364.906C1103.93 364.987 1103.79 364.987 1103.71 364.906L1095.69 356.881C1093.26 354.454 1093.26 350.519 1095.69 348.093L1099.64 344.142C1102.07 341.716 1106 341.716 1108.43 344.142L1112.2 347.92Z" fill="#73628A"/>
<path d="M1098.04 333.889C1100.47 336.316 1100.47 340.25 1098.04 342.677L1094.15 346.568C1091.73 348.994 1087.79 348.994 1085.36 346.568L1077.23 338.43C1077.15 338.349 1077.15 338.218 1077.23 338.137L1085.36 329.999C1087.79 327.572 1091.73 327.572 1094.15 329.999L1098.04 333.889Z" fill="#313D5A"/>
<path fill-rule="evenodd" clip-rule="evenodd" d="M1111.24 334.227L1117.31 334.227C1119.14 334.227 1120.62 332.743 1120.62 330.913L1120.62 321.529L1111.24 321.529C1109.41 321.529 1107.93 323.013 1107.93 324.843L1107.93 330.913C1107.93 332.743 1109.41 334.227 1111.24 334.227ZM1117.31 337.127C1120.74 337.127 1123.52 334.345 1123.52 330.913L1123.52 318.836C1123.52 318.722 1123.43 318.629 1123.32 318.629L1111.24 318.629C1107.81 318.629 1105.03 321.411 1105.03 324.843L1105.03 330.913C1105.03 334.345 1107.81 337.127 1111.24 337.127L1117.31 337.127Z" fill="#CBC5EA"/>
<path fill-rule="evenodd" clip-rule="evenodd" d="M1120.62 354.63L1120.62 345.246C1120.62 343.416 1119.14 341.932 1117.31 341.932L1111.24 341.932C1109.41 341.932 1107.93 343.416 1107.93 345.246L1107.93 351.316C1107.93 353.147 1109.41 354.63 1111.24 354.63L1120.62 354.63ZM1123.32 357.53C1123.43 357.53 1123.52 357.438 1123.52 357.323L1123.52 345.246C1123.52 341.814 1120.74 339.032 1117.31 339.032L1111.24 339.032C1107.81 339.032 1105.03 341.814 1105.03 345.246L1105.03 351.316C1105.03 354.748 1107.81 357.53 1111.24 357.53L1123.32 357.53Z" fill="#EAEAEA"/>
<path fill-rule="evenodd" clip-rule="evenodd" d="M1087.63 354.628L1097.02 354.628C1098.85 354.628 1100.33 353.145 1100.33 351.314L1100.33 345.244C1100.33 343.414 1098.85 341.93 1097.02 341.93L1090.95 341.93C1089.12 341.93 1087.63 343.414 1087.63 345.244L1087.63 354.628ZM1097.02 357.528C1100.45 357.528 1103.23 354.746 1103.23 351.314L1103.23 345.244C1103.23 341.812 1100.45 339.03 1097.02 339.03L1090.95 339.03C1087.52 339.03 1084.73 341.812 1084.73 345.244L1084.73 357.321C1084.73 357.436 1084.83 357.528 1084.94 357.528L1097.02 357.528Z" fill="#73628A"/>
<path fill-rule="evenodd" clip-rule="evenodd" d="M1091 334.227L1097.07 334.227C1098.9 334.227 1100.39 332.743 1100.39 330.913L1100.39 324.843C1100.39 323.013 1098.9 321.529 1097.07 321.529L1087.69 321.529L1087.69 330.913C1087.69 332.743 1089.17 334.227 1091 334.227ZM1097.07 337.127C1100.5 337.127 1103.29 334.345 1103.29 330.913L1103.29 324.843C1103.29 321.411 1100.5 318.629 1097.07 318.629L1085 318.629C1084.88 318.629 1084.79 318.722 1084.79 318.836L1084.79 330.913C1084.79 334.345 1087.57 337.127 1091 337.127L1097.07 337.127Z" fill="#313D5A"/>
</g>
<g filter="url(#filter5_f_542_8040)">
<rect x="1055.97" y="363.045" width="3.84132" height="60.5008" fill="#777777"/>
<path d="M1054.53 363.686L1058.53 362.246L1062.21 364.326L1062.85 368.488L1060.77 371.209L1056.29 371.689L1053.25 369.128V365.287L1054.53 363.686Z" fill="#777777"/>
<path d="M1076.99 366.882C1077.05 366.939 1077.05 367.031 1076.99 367.088L1071.23 372.846C1069.53 374.551 1066.76 374.551 1065.06 372.846L1062.29 370.071C1060.58 368.367 1060.58 365.603 1062.29 363.898L1065.06 361.123C1066.76 359.419 1069.53 359.419 1071.23 361.123L1076.99 366.882Z" fill="#EAEAEA"/>
<path d="M1063.97 353.862C1065.67 355.567 1065.67 358.331 1063.97 360.035L1061.2 362.81C1059.49 364.515 1056.73 364.515 1055.02 362.81L1052.25 360.035C1050.54 358.331 1050.54 355.567 1052.25 353.862L1058.01 348.104C1058.06 348.047 1058.15 348.047 1058.21 348.104L1063.97 353.862Z" fill="#CBC5EA"/>
<path d="M1063.73 373.935C1065.43 375.64 1065.43 378.403 1063.73 380.108L1057.97 385.867C1057.91 385.924 1057.82 385.924 1057.76 385.867L1052.13 380.229C1050.42 378.524 1050.42 375.76 1052.13 374.056L1054.9 371.281C1056.61 369.576 1059.37 369.576 1061.07 371.281L1063.73 373.935Z" fill="#73628A"/>
<path d="M1053.78 364.079C1055.49 365.784 1055.49 368.547 1053.78 370.252L1051.05 372.985C1049.34 374.69 1046.58 374.69 1044.88 372.985L1039.16 367.268C1039.1 367.212 1039.1 367.119 1039.16 367.063L1044.88 361.346C1046.58 359.641 1049.34 359.641 1051.05 361.346L1053.78 364.079Z" fill="#313D5A"/>
<path fill-rule="evenodd" clip-rule="evenodd" d="M1063.05 364.316L1067.32 364.316C1068.6 364.316 1069.64 363.274 1069.64 361.988L1069.64 355.396L1063.05 355.396C1061.77 355.396 1060.72 356.438 1060.72 357.724L1060.72 361.988C1060.72 363.274 1061.77 364.316 1063.05 364.316ZM1067.32 366.353C1069.73 366.353 1071.68 364.399 1071.68 361.988L1071.68 353.505C1071.68 353.424 1071.62 353.359 1071.54 353.359L1063.05 353.359C1060.64 353.359 1058.69 355.313 1058.69 357.724L1058.69 361.988C1058.69 364.399 1060.64 366.353 1063.05 366.353L1067.32 366.353Z" fill="#CBC5EA"/>
<path fill-rule="evenodd" clip-rule="evenodd" d="M1069.64 378.648L1069.64 372.056C1069.64 370.77 1068.6 369.728 1067.32 369.728L1063.05 369.728C1061.77 369.728 1060.72 370.77 1060.72 372.056L1060.72 376.32C1060.72 377.606 1061.77 378.648 1063.05 378.648L1069.64 378.648ZM1071.54 380.685C1071.62 380.685 1071.68 380.62 1071.68 380.54L1071.68 372.056C1071.68 369.645 1069.73 367.691 1067.32 367.691L1063.05 367.691C1060.64 367.691 1058.69 369.645 1058.69 372.056L1058.69 376.32C1058.69 378.731 1060.64 380.685 1063.05 380.685L1071.54 380.685Z" fill="#EAEAEA"/>
<path fill-rule="evenodd" clip-rule="evenodd" d="M1046.47 378.647L1053.06 378.647C1054.35 378.647 1055.39 377.605 1055.39 376.319L1055.39 372.055C1055.39 370.769 1054.35 369.727 1053.06 369.727L1048.8 369.727C1047.51 369.727 1046.47 370.769 1046.47 372.055L1046.47 378.647ZM1053.06 380.684C1055.47 380.684 1057.43 378.73 1057.43 376.319L1057.43 372.055C1057.43 369.644 1055.47 367.69 1053.06 367.69L1048.8 367.69C1046.39 367.69 1044.43 369.644 1044.43 372.055L1044.43 380.539C1044.43 380.619 1044.5 380.684 1044.58 380.684L1053.06 380.684Z" fill="#73628A"/>
<path fill-rule="evenodd" clip-rule="evenodd" d="M1048.84 364.316L1053.1 364.316C1054.39 364.316 1055.43 363.274 1055.43 361.988L1055.43 357.724C1055.43 356.438 1054.39 355.396 1053.1 355.396L1046.51 355.396L1046.51 361.988C1046.51 363.274 1047.55 364.316 1048.84 364.316ZM1053.1 366.353C1055.51 366.353 1057.47 364.399 1057.47 361.988L1057.47 357.724C1057.47 355.313 1055.51 353.359 1053.1 353.359L1044.62 353.359C1044.54 353.359 1044.47 353.424 1044.47 353.505L1044.47 361.988C1044.47 364.399 1046.43 366.353 1048.84 366.353L1053.1 366.353Z" fill="#313D5A"/>
</g>
<g filter="url(#filter6_f_542_8040)">
<rect x="1023.25" y="387.863" width="2.77353" height="43.6831" fill="#777777"/>
<path d="M1022.21 388.326L1025.1 387.286L1027.76 388.788L1028.22 391.793L1026.72 393.758L1023.48 394.104L1021.29 392.255V389.482L1022.21 388.326Z" fill="#777777"/>
<path d="M1038.43 390.634C1038.47 390.675 1038.47 390.741 1038.43 390.782L1034.27 394.94C1033.04 396.171 1031.05 396.171 1029.82 394.94L1027.81 392.937C1026.58 391.706 1026.58 389.71 1027.81 388.479L1029.82 386.476C1031.05 385.245 1033.04 385.245 1034.27 386.476L1038.43 390.634Z" fill="#EAEAEA"/>
<path d="M1029.03 381.233C1030.26 382.464 1030.26 384.459 1029.03 385.69L1027.03 387.694C1025.79 388.924 1023.8 388.924 1022.57 387.694L1020.56 385.69C1019.33 384.459 1019.33 382.464 1020.56 381.233L1024.72 377.075C1024.76 377.034 1024.83 377.034 1024.87 377.075L1029.03 381.233Z" fill="#CBC5EA"/>
<path d="M1028.86 395.726C1030.09 396.957 1030.09 398.952 1028.86 400.183L1024.7 404.341C1024.66 404.382 1024.59 404.382 1024.55 404.341L1020.48 400.271C1019.25 399.04 1019.25 397.044 1020.48 395.813L1022.48 393.81C1023.71 392.579 1025.71 392.579 1026.94 393.81L1028.86 395.726Z" fill="#73628A"/>
<path d="M1021.67 388.61C1022.9 389.841 1022.9 391.836 1021.67 393.067L1019.7 395.04C1018.47 396.271 1016.47 396.271 1015.24 395.04L1011.11 390.913C1011.07 390.872 1011.07 390.805 1011.11 390.764L1015.24 386.637C1016.47 385.406 1018.47 385.406 1019.7 386.637L1021.67 388.61Z" fill="#313D5A"/>
<path fill-rule="evenodd" clip-rule="evenodd" d="M1028.37 388.781L1031.44 388.781C1032.37 388.781 1033.13 388.029 1033.13 387.1L1033.13 382.341L1028.37 382.341C1027.44 382.341 1026.69 383.093 1026.69 384.022L1026.69 387.1C1026.69 388.029 1027.44 388.781 1028.37 388.781ZM1031.44 390.252C1033.19 390.252 1034.6 388.841 1034.6 387.1L1034.6 380.975C1034.6 380.917 1034.55 380.87 1034.49 380.87L1028.37 380.87C1026.63 380.87 1025.21 382.281 1025.21 384.022L1025.21 387.1C1025.21 388.841 1026.63 390.252 1028.37 390.252L1031.44 390.252Z" fill="#CBC5EA"/>
<path fill-rule="evenodd" clip-rule="evenodd" d="M1033.13 399.129L1033.13 394.37C1033.13 393.441 1032.37 392.689 1031.44 392.689L1028.37 392.689C1027.44 392.689 1026.69 393.441 1026.69 394.37L1026.69 397.448C1026.69 398.377 1027.44 399.129 1028.37 399.129L1033.13 399.129ZM1034.49 400.6C1034.55 400.6 1034.6 400.553 1034.6 400.495L1034.6 394.37C1034.6 392.629 1033.19 391.218 1031.44 391.218L1028.37 391.218C1026.63 391.218 1025.21 392.629 1025.21 394.37L1025.21 397.448C1025.21 399.189 1026.63 400.6 1028.37 400.6L1034.49 400.6Z" fill="#EAEAEA"/>
<path fill-rule="evenodd" clip-rule="evenodd" d="M1016.39 399.128L1021.15 399.128C1022.08 399.128 1022.83 398.376 1022.83 397.447L1022.83 394.369C1022.83 393.441 1022.08 392.688 1021.15 392.688L1018.07 392.688C1017.15 392.688 1016.39 393.441 1016.39 394.369L1016.39 399.128ZM1021.15 400.599C1022.89 400.599 1024.3 399.188 1024.3 397.447L1024.3 394.369C1024.3 392.628 1022.89 391.217 1021.15 391.217L1018.07 391.217C1016.33 391.217 1014.92 392.628 1014.92 394.369L1014.92 400.494C1014.92 400.552 1014.97 400.599 1015.03 400.599L1021.15 400.599Z" fill="#73628A"/>
<path fill-rule="evenodd" clip-rule="evenodd" d="M1018.1 388.781L1021.18 388.781C1022.11 388.781 1022.86 388.029 1022.86 387.1L1022.86 384.022C1022.86 383.093 1022.11 382.341 1021.18 382.341L1016.42 382.341L1016.42 387.1C1016.42 388.029 1017.17 388.781 1018.1 388.781ZM1021.18 390.252C1022.92 390.252 1024.33 388.841 1024.33 387.1L1024.33 384.022C1024.33 382.281 1022.92 380.87 1021.18 380.87L1015.06 380.87C1015 380.87 1014.95 380.917 1014.95 380.975L1014.95 387.1C1014.95 388.841 1016.36 390.252 1018.1 390.252L1021.18 390.252Z" fill="#313D5A"/>
</g>
<path d="M562 280.583C320.4 61.3827 64 113.249 -34 166.583H-44V775L478 785L1474 887L1518 456.583C1446.67 434.583 1398 378.583 1204 392.583C930 412.356 864 554.583 562 280.583Z" fill="#73628A"/>
<defs>
<filter id="filter0_f_542_8040" x="243.078" y="36.0776" width="52.6865" height="100.923" filterUnits="userSpaceOnUse" color-interpolation-filters="sRGB">
<feFlood flood-opacity="0" result="BackgroundImageFix"/>
<feBlend mode="normal" in="SourceGraphic" in2="BackgroundImageFix" result="shape"/>
<feGaussianBlur stdDeviation="1" result="effect1_foregroundBlur_542_8040"/>
</filter>
<filter id="filter1_f_542_8040" x="284.062" y="64.0601" width="45.8232" height="83.2983" filterUnits="userSpaceOnUse" color-interpolation-filters="sRGB">
<feFlood flood-opacity="0" result="BackgroundImageFix"/>
<feBlend mode="normal" in="SourceGraphic" in2="BackgroundImageFix" result="shape"/>
<feGaussianBlur stdDeviation="2" result="effect1_foregroundBlur_542_8040"/>
</filter>
<filter id="filter2_f_542_8040" x="1186.28" y="210.296" width="92.5439" height="182.25" filterUnits="userSpaceOnUse" color-interpolation-filters="sRGB">
<feFlood flood-opacity="0" result="BackgroundImageFix"/>
<feBlend mode="normal" in="SourceGraphic" in2="BackgroundImageFix" result="shape"/>
<feGaussianBlur stdDeviation="0.5" result="effect1_foregroundBlur_542_8040"/>
</filter>
<filter id="filter3_f_542_8040" x="1124.21" y="266.109" width="72.0342" height="139.437" filterUnits="userSpaceOnUse" color-interpolation-filters="sRGB">
<feFlood flood-opacity="0" result="BackgroundImageFix"/>
<feBlend mode="normal" in="SourceGraphic" in2="BackgroundImageFix" result="shape"/>
<feGaussianBlur stdDeviation="1" result="effect1_foregroundBlur_542_8040"/>
</filter>
<filter id="filter4_f_542_8040" x="1074.17" y="308.087" width="59.9805" height="113.459" filterUnits="userSpaceOnUse" color-interpolation-filters="sRGB">
<feFlood flood-opacity="0" result="BackgroundImageFix"/>
<feBlend mode="normal" in="SourceGraphic" in2="BackgroundImageFix" result="shape"/>
<feGaussianBlur stdDeviation="1.5" result="effect1_foregroundBlur_542_8040"/>
</filter>
<filter id="filter5_f_542_8040" x="1036.12" y="345.061" width="43.918" height="81.4854" filterUnits="userSpaceOnUse" color-interpolation-filters="sRGB">
<feFlood flood-opacity="0" result="BackgroundImageFix"/>
<feBlend mode="normal" in="SourceGraphic" in2="BackgroundImageFix" result="shape"/>
<feGaussianBlur stdDeviation="1.5" result="effect1_foregroundBlur_542_8040"/>
</filter>
<filter id="filter6_f_542_8040" x="1008.08" y="374.044" width="33.3779" height="60.502" filterUnits="userSpaceOnUse" color-interpolation-filters="sRGB">
<feFlood flood-opacity="0" result="BackgroundImageFix"/>
<feBlend mode="normal" in="SourceGraphic" in2="BackgroundImageFix" result="shape"/>
<feGaussianBlur stdDeviation="1.5" result="effect1_foregroundBlur_542_8040"/>
</filter>
</defs>
</svg>
