<svg width="1705" height="204" viewBox="0 0 1705 204" fill="none" xmlns="http://www.w3.org/2000/svg">
<g filter="url(#filter0_i_542_8039)">
<ellipse cx="1417.71" cy="50.5933" rx="74.7059" ry="28.0924" fill="#EAEAEA"/>
<ellipse cx="1514.61" cy="50.8987" rx="79.4017" ry="17.405" fill="#EAEAEA"/>
<ellipse cx="1563.53" cy="73.0082" rx="79.4445" ry="27.9921" fill="#EAEAEA"/>
<ellipse cx="1472.97" cy="63.7601" rx="42.2622" ry="11.6034" fill="#EAEAEA"/>
<ellipse cx="1594.44" cy="49.1273" rx="110.563" ry="27.9921" fill="#EAEAEA"/>
<ellipse cx="1583.82" cy="38.0805" rx="60.5924" ry="28.1533" fill="#EAEAEA"/>
<ellipse cx="1504.97" cy="31.9921" rx="79.4445" ry="27.9921" fill="#EAEAEA"/>
<ellipse cx="1580.35" cy="71.3578" rx="31.5899" ry="11.6034" fill="#EAEAEA"/>
</g>
<g filter="url(#filter1_i_542_8039)">
<ellipse cx="467.495" cy="115.599" rx="86.4951" ry="45.8358" fill="#EAEAEA"/>
<ellipse cx="501.578" cy="79.1336" rx="49.5485" ry="45.8358" fill="#EAEAEA"/>
<ellipse cx="592.655" cy="55.8358" rx="62.1505" ry="45.8358" fill="#EAEAEA"/>
<ellipse cx="578.908" cy="123.703" rx="62.1505" ry="45.8358" fill="#EAEAEA"/>
<ellipse cx="672.85" cy="104.964" rx="62.1505" ry="45.8358" fill="#EAEAEA"/>
</g>
<g filter="url(#filter2_i_542_8039)">
<ellipse cx="92.1148" cy="56.5083" rx="92.1148" ry="31.4707" fill="#EAEAEA"/>
<ellipse cx="128.411" cy="31.4707" rx="52.7678" ry="31.4707" fill="#EAEAEA"/>
<ellipse cx="225.5" cy="23.5039" rx="66.5" ry="23.5" fill="#EAEAEA"/>
<ellipse cx="210.767" cy="62.0718" rx="66.1885" ry="31.4707" fill="#EAEAEA"/>
<ellipse cx="176.188" cy="80.4707" rx="66.1885" ry="31.4707" fill="#EAEAEA"/>
<ellipse cx="296" cy="49.5" rx="51" ry="31.5" fill="#EAEAEA"/>
</g>
<g filter="url(#filter3_i_542_8039)">
<ellipse cx="1045.75" cy="157.464" rx="106.745" ry="37.7824" fill="#EAEAEA"/>
<ellipse cx="1042.45" cy="133.89" rx="72.1262" ry="37.9178" fill="#EAEAEA"/>
<ellipse cx="1136.01" cy="134.302" rx="76.6598" ry="23.4925" fill="#EAEAEA"/>
<ellipse cx="1183.24" cy="164.144" rx="76.7012" ry="37.7824" fill="#EAEAEA"/>
<ellipse cx="1042.45" cy="187.469" rx="40.8028" ry="15.6617" fill="#EAEAEA"/>
<ellipse cx="1213.08" cy="131.911" rx="106.745" ry="37.7824" fill="#EAEAEA"/>
<ellipse cx="1230.13" cy="100.782" rx="61.1488" ry="37.7824" fill="#EAEAEA"/>
<ellipse cx="1303.34" cy="108.748" rx="76.6598" ry="23.4925" fill="#EAEAEA"/>
<ellipse cx="1259.69" cy="141.173" rx="76.7012" ry="37.7824" fill="#EAEAEA"/>
<ellipse cx="1199.48" cy="161.916" rx="30.4991" ry="15.6617" fill="#EAEAEA"/>
</g>
<defs>
<filter id="filter0_i_542_8039" x="1343" y="4" width="362" height="97" filterUnits="userSpaceOnUse" color-interpolation-filters="sRGB">
<feFlood flood-opacity="0" result="BackgroundImageFix"/>
<feBlend mode="normal" in="SourceGraphic" in2="BackgroundImageFix" result="shape"/>
<feColorMatrix in="SourceAlpha" type="matrix" values="0 0 0 0 0 0 0 0 0 0 0 0 0 0 0 0 0 0 127 0" result="hardAlpha"/>
<feOffset dx="-8" dy="-14"/>
<feComposite in2="hardAlpha" operator="arithmetic" k2="-1" k3="1"/>
<feColorMatrix type="matrix" values="0 0 0 0 0 0 0 0 0 0 0 0 0 0 0 0 0 0 0.25 0"/>
<feBlend mode="normal" in2="shape" result="effect1_innerShadow_542_8039"/>
</filter>
<filter id="filter1_i_542_8039" x="381" y="10" width="354" height="159.539" filterUnits="userSpaceOnUse" color-interpolation-filters="sRGB">
<feFlood flood-opacity="0" result="BackgroundImageFix"/>
<feBlend mode="normal" in="SourceGraphic" in2="BackgroundImageFix" result="shape"/>
<feColorMatrix in="SourceAlpha" type="matrix" values="0 0 0 0 0 0 0 0 0 0 0 0 0 0 0 0 0 0 127 0" result="hardAlpha"/>
<feOffset dx="4" dy="-14"/>
<feComposite in2="hardAlpha" operator="arithmetic" k2="-1" k3="1"/>
<feColorMatrix type="matrix" values="0 0 0 0 0 0 0 0 0 0 0 0 0 0 0 0 0 0 0.25 0"/>
<feBlend mode="normal" in2="shape" result="effect1_innerShadow_542_8039"/>
</filter>
<filter id="filter2_i_542_8039" x="0" y="0" width="347" height="111.941" filterUnits="userSpaceOnUse" color-interpolation-filters="sRGB">
<feFlood flood-opacity="0" result="BackgroundImageFix"/>
<feBlend mode="normal" in="SourceGraphic" in2="BackgroundImageFix" result="shape"/>
<feColorMatrix in="SourceAlpha" type="matrix" values="0 0 0 0 0 0 0 0 0 0 0 0 0 0 0 0 0 0 127 0" result="hardAlpha"/>
<feOffset dx="4" dy="-14"/>
<feComposite in2="hardAlpha" operator="arithmetic" k2="-1" k3="1"/>
<feColorMatrix type="matrix" values="0 0 0 0 0 0 0 0 0 0 0 0 0 0 0 0 0 0 0.25 0"/>
<feBlend mode="normal" in2="shape" result="effect1_innerShadow_542_8039"/>
</filter>
<filter id="filter3_i_542_8039" x="939" y="63" width="440.999" height="140.131" filterUnits="userSpaceOnUse" color-interpolation-filters="sRGB">
<feFlood flood-opacity="0" result="BackgroundImageFix"/>
<feBlend mode="normal" in="SourceGraphic" in2="BackgroundImageFix" result="shape"/>
<feColorMatrix in="SourceAlpha" type="matrix" values="0 0 0 0 0 0 0 0 0 0 0 0 0 0 0 0 0 0 127 0" result="hardAlpha"/>
<feOffset dx="-8" dy="-14"/>
<feComposite in2="hardAlpha" operator="arithmetic" k2="-1" k3="1"/>
<feColorMatrix type="matrix" values="0 0 0 0 0 0 0 0 0 0 0 0 0 0 0 0 0 0 0.25 0"/>
<feBlend mode="normal" in2="shape" result="effect1_innerShadow_542_8039"/>
</filter>
</defs>
</svg>
