<svg width="1728" height="1170" viewBox="0 0 1728 1170" fill="none" xmlns="http://www.w3.org/2000/svg">
<path d="M223 305.588C-31.4 299.188 -33.6667 387.333 -39 442V1064H1755V530C1695 502.412 1887 148 1615 119.083C1370.37 93.0755 1315 671.588 935 665.588C555 659.588 541 313.588 223 305.588Z" fill="#313D5A"/>
<path d="M1559 123V74.0152L1600.02 44.8489C1600.73 44.3435 1601.69 44.357 1602.39 44.8824L1641 74.0152V123C1641 124.105 1640.1 125 1639 125H1561C1559.9 125 1559 124.105 1559 123Z" fill="#313D5A"/>
<path d="M1622 64.0177V45C1622 44.4477 1622.45 44 1623 44H1634C1634.55 44 1635 44.4477 1635 45V72.0339C1635 72.8516 1634.07 73.3237 1633.41 72.8421L1622.41 64.8259C1622.15 64.6376 1622 64.3373 1622 64.0177Z" fill="#313D5A"/>
<path d="M1569 105.6V94C1569 92.8954 1569.9 92 1571 92H1593.53C1594.64 92 1595.53 92.8954 1595.53 94V105.6C1595.53 106.705 1594.64 107.6 1593.53 107.6H1571C1569.9 107.6 1569 106.705 1569 105.6Z" fill="#73628A"/>
<path d="M1613.9 122V94C1613.9 92.8954 1614.79 92 1615.9 92H1627C1628.1 92 1629 92.8954 1629 94V122C1629 123.105 1628.1 124 1627 124H1615.9C1614.79 124 1613.9 123.105 1613.9 122Z" fill="#73628A"/>
<path d="M1619.31 24.5519C1617.01 34.261 1627.94 38.2294 1633.69 39C1637.39 31.6875 1628.79 32.8723 1630.98 24.5519C1633.69 14.2188 1633.69 20.5065 1637.39 11.2597C1641.09 2.01297 1626.71 -6.07794 1625.89 6.34739C1625.07 18.7727 1622.19 12.4156 1619.31 24.5519Z" fill="#DEDEDE"/>
<path d="M49.3389 291.367V326.306H70.2762V291.367H49.3389Z" fill="#313D5A"/>
<path d="M15.1671 299.38C25.2146 308.159 48.725 301.696 59.5379 297.642C70.3405 302.187 90.7885 308.343 103.908 295.904C117.028 283.465 90.2967 268.153 74.9743 262.065L39.4783 263.455C27.3972 271.954 -1.16006 285.113 15.1671 299.38Z" fill="#313D5A"/>
<path d="M23.194 261.82C16.605 253.975 38.7488 235.273 56.0545 227.39C58.9302 226.08 62.2216 226.24 64.9329 227.815C79.2438 236.131 101.456 255.423 93.7061 261.309C85.678 267.407 74.1491 269.853 61.2384 267.33C59.4352 266.978 57.5778 266.951 55.7606 267.26C46.1861 268.89 29.701 269.568 23.194 261.82Z" fill="#313D5A"/>
<path d="M126.576 267.648V309.477H137.775V267.648H126.576Z" fill="#313D5A"/>
<path d="M108.299 277.242C113.673 287.752 126.248 280.015 132.032 275.161C137.81 280.603 148.747 287.972 155.765 273.081C162.782 258.19 148.484 239.859 140.288 232.57L121.302 234.234C114.84 244.409 99.5656 260.162 108.299 277.242Z" fill="#313D5A"/>
<path d="M112.592 232.277C109.644 224.42 117.451 207.467 125.501 196.61C129.073 191.793 135.896 192.506 139.276 197.94C146.282 209.209 153.718 225.867 150.308 231.665C146.973 237.333 142.51 240.366 137.448 240.024C133.567 239.762 129.502 239.383 125.697 239.889C120.876 240.529 115.217 239.271 112.592 232.277Z" fill="#313D5A"/>
<path d="M207.339 260.685V313.942H229.314V260.685H207.339Z" fill="#313D5A"/>
<path d="M171.473 272.898C182.018 286.281 206.694 276.43 218.043 270.249C229.382 277.178 250.843 286.561 264.613 267.601C278.383 248.641 250.327 225.301 234.245 216.021L196.989 218.14C184.309 231.095 154.336 251.152 171.473 272.898Z" fill="#313D5A"/>
<path d="M179.899 215.648C173.136 203.956 195.209 176.439 213.173 163.991C216.738 161.521 221.483 161.852 224.827 164.778C239.853 177.922 261.842 206.116 253.907 214.869C245.695 223.927 233.994 227.698 220.862 224.326C218.305 223.669 215.633 223.598 213.087 224.175C202.927 226.477 186.508 227.077 179.899 215.648Z" fill="#313D5A"/>
<path d="M288.691 293.274V321.942H297.355V293.274H288.691Z" fill="#313D5A"/>
<path d="M274.552 299.849C278.709 307.052 288.437 301.75 292.911 298.423C297.381 302.153 305.842 307.203 311.271 296.997C316.699 286.791 305.639 274.228 299.299 269.232L284.611 270.373C279.612 277.347 267.796 288.143 274.552 299.849Z" fill="#313D5A"/>
<path d="M277.874 269.032C275.728 263.966 280.945 253.384 286.755 245.952C290.148 241.613 296.344 242.195 299.564 247.033C304.641 254.661 309.518 264.894 307.05 268.612C304.634 272.25 301.452 274.304 297.842 274.358C294.361 274.41 290.702 274.093 287.238 274.319C283.694 274.551 279.765 273.497 277.874 269.032Z" fill="#313D5A"/>
<rect x="1005" y="636" width="12" height="31" fill="#313D5A"/>
<rect x="987" y="615" width="47" height="24" rx="4" fill="#313D5A"/>
<path d="M1109 593.328V619.482C1109 620.914 1110.46 621.882 1111.78 621.324L1120.78 617.516C1121.52 617.203 1122 616.478 1122 615.675V593.328C1122 592.798 1121.79 592.289 1121.41 591.914L1116.91 587.414C1116.13 586.633 1114.87 586.633 1114.09 587.414L1109.59 591.914C1109.21 592.289 1109 592.798 1109 593.328Z" fill="#313D5A"/>
<path d="M1129.28 593.65L1115.59 602.743L1120.86 605.228L1132.04 597.803L1133.63 593.756L1129.28 593.65Z" fill="#313D5A"/>
<path d="M1129 580.328V606.482C1129 607.914 1130.46 608.882 1131.78 608.324L1140.78 604.516C1141.52 604.203 1142 603.478 1142 602.675V580.328C1142 579.798 1141.79 579.289 1141.41 578.914L1136.91 574.414C1136.13 573.633 1134.87 573.633 1134.09 574.414L1129.59 578.914C1129.21 579.289 1129 579.798 1129 580.328Z" fill="#313D5A"/>
<path d="M1148.68 580.267L1136 590.731L1141.5 592.657L1151.85 584.111L1153.01 579.922L1148.68 580.267Z" fill="#313D5A"/>
<path d="M1149 567.328V593.482C1149 594.914 1150.46 595.882 1151.78 595.324L1160.78 591.516C1161.52 591.203 1162 590.478 1162 589.675V567.328C1162 566.798 1161.79 566.289 1161.41 565.914L1156.91 561.414C1156.13 560.633 1154.87 560.633 1154.09 561.414L1149.59 565.914C1149.21 566.289 1149 566.798 1149 567.328Z" fill="#313D5A"/>
<path d="M1169.67 563.723L1155.54 576.948L1161.54 578.163L1173.08 567.362L1174.44 562.677L1169.67 563.723Z" fill="#313D5A"/>
<path d="M1169 551.328V577.482C1169 578.914 1170.46 579.882 1171.78 579.324L1180.78 575.516C1181.52 575.203 1182 574.478 1182 573.675V551.328C1182 550.798 1181.79 550.289 1181.41 549.914L1176.91 545.414C1176.13 544.633 1174.87 544.633 1174.09 545.414L1169.59 549.914C1169.21 550.289 1169 550.798 1169 551.328Z" fill="#313D5A"/>
<path d="M1190.13 544.445L1174.55 561.206L1181.06 561.527L1193.78 547.838L1195.34 542.51L1190.13 544.445Z" fill="#313D5A"/>
<path d="M1190 531.328V557.482C1190 558.914 1191.46 559.882 1192.78 559.324L1201.78 555.516C1202.52 555.203 1203 554.478 1203 553.675V531.328C1203 530.798 1202.79 530.289 1202.41 529.914L1197.91 525.414C1197.13 524.633 1195.87 524.633 1195.09 525.414L1190.59 529.914C1190.21 530.289 1190 530.798 1190 531.328Z" fill="#313D5A"/>
<path d="M1212.19 522.335L1194.18 542.096L1201.17 541.831L1215.87 525.693L1217.93 519.732L1212.19 522.335Z" fill="#313D5A"/>
<path d="M1211 513.328V539.482C1211 540.914 1212.46 541.882 1213.78 541.324L1222.78 537.516C1223.52 537.203 1224 536.478 1224 535.675V513.328C1224 512.798 1223.79 512.289 1223.41 511.914L1218.91 507.414C1218.13 506.633 1216.87 506.633 1216.09 507.414L1211.59 511.914C1211.21 512.289 1211 512.798 1211 513.328Z" fill="#313D5A"/>
<g clip-path="url(#clip0_542_8041)">
<path d="M683.244 567.69C684.327 565.554 685.41 563.417 686.494 561.28C687.826 558.663 690.952 557.47 693.639 558.755C694.487 559.155 695.206 559.806 695.733 560.555C697.04 560.765 698.318 561.165 699.405 561.968C699.505 562.034 699.595 562.122 699.673 562.179C702.922 558.783 709.48 561.613 708.904 566.39C710.312 570.162 712.634 573.499 715.754 576.128C718.823 578.761 714.987 583.764 711.875 581.114C709.367 578.966 707.314 576.574 705.681 573.9C704.222 576.642 702.62 579.299 700.801 581.867C702.478 589.042 701.715 595.87 697.711 602.45C695.622 605.92 690.645 602.019 692.725 598.571C695.499 593.991 695.952 588.961 694.84 583.918C694.753 583.882 694.688 583.856 694.602 583.82C691.542 588.232 688.349 592.538 685.034 596.769C682.527 599.965 677.532 596.107 680.048 592.89C683.931 587.956 687.658 582.908 691.144 577.709C691.282 577.006 691.576 576.292 692.07 575.584C692.318 575.23 692.556 574.897 692.782 574.535C692.299 574.538 691.795 574.533 691.299 574.506C691.151 574.496 691.013 574.464 690.904 574.419C689.39 575.39 687.474 575.614 685.722 574.765C683.19 573.595 681.921 570.285 683.244 567.69ZM695.058 571.041C696.178 569.122 697.168 567.149 698.068 565.089C697.681 564.676 697.197 564.375 696.687 564.14C696.637 564.752 696.47 565.342 696.177 565.93C695.24 567.773 694.303 569.615 693.357 571.479C693.928 571.385 694.495 571.239 695.058 571.041Z" fill="#313D5A"/>
<path d="M715.442 558.271C714.902 559.58 713.865 560.621 712.558 561.165C711.25 561.709 709.781 561.711 708.472 561.172C707.163 560.632 706.122 559.595 705.577 558.287C705.033 556.98 705.031 555.51 705.571 554.201C706.11 552.892 707.148 551.851 708.455 551.307C709.762 550.763 711.232 550.761 712.541 551.3C713.85 551.84 714.891 552.877 715.435 554.185C715.979 555.492 715.982 556.962 715.442 558.271Z" fill="#313D5A"/>
</g>
<defs>
<clipPath id="clip0_542_8041">
<rect width="59.9424" height="59.9424" fill="white" transform="matrix(-0.924528 -0.381114 -0.381114 0.924528 738.263 559.371)"/>
</clipPath>
</defs>
</svg>
