<svg width="1728" height="1170" viewBox="0 0 1728 1170" fill="none" xmlns="http://www.w3.org/2000/svg">
<path d="M224 305.588C-30.4 299.188 -32.6667 387.333 -38 442V1064H1756V530C1696 502.412 1888 148 1616 119.083C1371.37 93.0755 1316 671.588 936 665.588C556 659.588 542 313.588 224 305.588Z" fill="#313D5A"/>
<path d="M1560 123V74.0152L1601.02 44.8489C1601.73 44.3435 1602.69 44.357 1603.39 44.8824L1642 74.0152V123C1642 124.105 1641.1 125 1640 125H1562C1560.9 125 1560 124.105 1560 123Z" fill="#313D5A"/>
<path d="M1623 64.0177V45C1623 44.4477 1623.45 44 1624 44H1635C1635.55 44 1636 44.4477 1636 45V72.0339C1636 72.8516 1635.07 73.3237 1634.41 72.8421L1623.41 64.8259C1623.15 64.6376 1623 64.3373 1623 64.0177Z" fill="#313D5A"/>
<path d="M1570 105.6V94C1570 92.8954 1570.9 92 1572 92H1594.53C1595.64 92 1596.53 92.8954 1596.53 94V105.6C1596.53 106.705 1595.64 107.6 1594.53 107.6H1572C1570.9 107.6 1570 106.705 1570 105.6Z" fill="#73628A"/>
<path d="M1614.9 122V94C1614.9 92.8954 1615.79 92 1616.9 92H1628C1629.1 92 1630 92.8954 1630 94V122C1630 123.105 1629.1 124 1628 124H1616.9C1615.79 124 1614.9 123.105 1614.9 122Z" fill="#73628A"/>
<path d="M1620.31 24.5519C1618.01 34.261 1628.94 38.2294 1634.69 39C1638.39 31.6875 1629.79 32.8723 1631.98 24.5519C1634.69 14.2188 1634.69 20.5065 1638.39 11.2597C1642.09 2.01297 1627.71 -6.07794 1626.89 6.34739C1626.07 18.7727 1623.19 12.4156 1620.31 24.5519Z" fill="#DEDEDE"/>
<path d="M50.3389 291.367V326.306H71.2762V291.367H50.3389Z" fill="#313D5A"/>
<path d="M16.1671 299.38C26.2146 308.159 49.725 301.696 60.5379 297.642C71.3405 302.187 91.7885 308.343 104.908 295.904C118.028 283.465 91.2967 268.153 75.9743 262.065L40.4783 263.455C28.3972 271.954 -0.160064 285.113 16.1671 299.38Z" fill="#313D5A"/>
<path d="M24.194 261.82C17.605 253.975 39.7488 235.273 57.0545 227.39C59.9302 226.08 63.2216 226.24 65.9329 227.815C80.2438 236.131 102.456 255.423 94.7061 261.309C86.678 267.407 75.1491 269.853 62.2384 267.33C60.4352 266.978 58.5778 266.951 56.7606 267.26C47.1861 268.89 30.701 269.568 24.194 261.82Z" fill="#313D5A"/>
<path d="M127.576 267.648V309.477H138.775V267.648H127.576Z" fill="#313D5A"/>
<path d="M109.299 277.242C114.673 287.752 127.248 280.015 133.032 275.161C138.81 280.603 149.747 287.972 156.765 273.081C163.782 258.19 149.484 239.859 141.288 232.57L122.302 234.234C115.84 244.409 100.566 260.162 109.299 277.242Z" fill="#313D5A"/>
<path d="M113.592 232.277C110.644 224.42 118.451 207.467 126.501 196.61C130.073 191.793 136.896 192.506 140.276 197.94C147.282 209.209 154.718 225.867 151.308 231.665C147.973 237.333 143.51 240.366 138.448 240.024C134.567 239.762 130.502 239.383 126.697 239.889C121.876 240.529 116.217 239.271 113.592 232.277Z" fill="#313D5A"/>
<path d="M208.339 260.685V313.942H230.314V260.685H208.339Z" fill="#313D5A"/>
<path d="M172.473 272.898C183.018 286.281 207.694 276.43 219.043 270.249C230.382 277.178 251.843 286.561 265.613 267.601C279.383 248.641 251.327 225.301 235.245 216.021L197.989 218.14C185.309 231.095 155.336 251.152 172.473 272.898Z" fill="#313D5A"/>
<path d="M180.899 215.648C174.136 203.956 196.209 176.439 214.173 163.991C217.738 161.521 222.483 161.852 225.827 164.778C240.853 177.922 262.842 206.116 254.907 214.869C246.695 223.927 234.994 227.698 221.862 224.326C219.305 223.669 216.633 223.598 214.087 224.175C203.927 226.477 187.508 227.077 180.899 215.648Z" fill="#313D5A"/>
<path d="M289.691 293.274V321.942H298.355V293.274H289.691Z" fill="#313D5A"/>
<path d="M275.552 299.849C279.709 307.052 289.437 301.75 293.911 298.423C298.381 302.153 306.842 307.203 312.271 296.997C317.699 286.791 306.639 274.228 300.299 269.232L285.611 270.373C280.612 277.347 268.796 288.143 275.552 299.849Z" fill="#313D5A"/>
<path d="M278.874 269.032C276.728 263.966 281.945 253.384 287.755 245.952C291.148 241.613 297.344 242.195 300.564 247.033C305.641 254.661 310.518 264.894 308.05 268.612C305.634 272.25 302.452 274.304 298.842 274.358C295.361 274.41 291.702 274.093 288.238 274.319C284.694 274.551 280.765 273.497 278.874 269.032Z" fill="#313D5A"/>
<rect x="1006" y="639" width="12" height="28" fill="#313D5A"/>
<rect x="988" y="615" width="47" height="24" rx="4" fill="#313D5A"/>
<path d="M1110 593.328V619.482C1110 620.914 1111.46 621.882 1112.78 621.324L1121.78 617.516C1122.52 617.203 1123 616.478 1123 615.675V593.328C1123 592.798 1122.79 592.289 1122.41 591.914L1117.91 587.414C1117.13 586.633 1115.87 586.633 1115.09 587.414L1110.59 591.914C1110.21 592.289 1110 592.798 1110 593.328Z" fill="#313D5A"/>
<path d="M1130.28 593.65L1116.59 602.743L1121.86 605.228L1133.04 597.803L1134.63 593.756L1130.28 593.65Z" fill="#313D5A"/>
<path d="M1130 580.328V606.482C1130 607.914 1131.46 608.882 1132.78 608.324L1141.78 604.516C1142.52 604.203 1143 603.478 1143 602.675V580.328C1143 579.798 1142.79 579.289 1142.41 578.914L1137.91 574.414C1137.13 573.633 1135.87 573.633 1135.09 574.414L1130.59 578.914C1130.21 579.289 1130 579.798 1130 580.328Z" fill="#313D5A"/>
<path d="M1149.68 580.267L1137 590.731L1142.5 592.657L1152.85 584.111L1154.01 579.922L1149.68 580.267Z" fill="#313D5A"/>
<path d="M1150 567.328V593.482C1150 594.914 1151.46 595.882 1152.78 595.324L1161.78 591.516C1162.52 591.203 1163 590.478 1163 589.675V567.328C1163 566.798 1162.79 566.289 1162.41 565.914L1157.91 561.414C1157.13 560.633 1155.87 560.633 1155.09 561.414L1150.59 565.914C1150.21 566.289 1150 566.798 1150 567.328Z" fill="#313D5A"/>
<path d="M1170.67 563.723L1156.54 576.948L1162.54 578.163L1174.08 567.362L1175.44 562.677L1170.67 563.723Z" fill="#313D5A"/>
<path d="M1170 551.328V577.482C1170 578.914 1171.46 579.882 1172.78 579.324L1181.78 575.516C1182.52 575.203 1183 574.478 1183 573.675V551.328C1183 550.798 1182.79 550.289 1182.41 549.914L1177.91 545.414C1177.13 544.633 1175.87 544.633 1175.09 545.414L1170.59 549.914C1170.21 550.289 1170 550.798 1170 551.328Z" fill="#313D5A"/>
<path d="M1191.13 544.445L1175.55 561.206L1182.06 561.527L1194.78 547.838L1196.34 542.51L1191.13 544.445Z" fill="#313D5A"/>
<path d="M1191 531.328V557.482C1191 558.914 1192.46 559.882 1193.78 559.324L1202.78 555.516C1203.52 555.203 1204 554.478 1204 553.675V531.328C1204 530.798 1203.79 530.289 1203.41 529.914L1198.91 525.414C1198.13 524.633 1196.87 524.633 1196.09 525.414L1191.59 529.914C1191.21 530.289 1191 530.798 1191 531.328Z" fill="#313D5A"/>
<path d="M1213.19 522.335L1195.18 542.096L1202.17 541.831L1216.87 525.693L1218.93 519.732L1213.19 522.335Z" fill="#313D5A"/>
<path d="M1212 513.328V539.482C1212 540.914 1213.46 541.882 1214.78 541.324L1223.78 537.516C1224.52 537.203 1225 536.478 1225 535.675V513.328C1225 512.798 1224.79 512.289 1224.41 511.914L1219.91 507.414C1219.13 506.633 1217.87 506.633 1217.09 507.414L1212.59 511.914C1212.21 512.289 1212 512.798 1212 513.328Z" fill="#313D5A"/>
<g clip-path="url(#clip0_542_8041)">
<path d="M684.244 567.69C685.327 565.554 686.41 563.417 687.494 561.28C688.826 558.663 691.952 557.47 694.639 558.755C695.487 559.155 696.206 559.806 696.733 560.555C698.04 560.765 699.318 561.165 700.405 561.968C700.505 562.034 700.595 562.122 700.673 562.179C703.922 558.783 710.48 561.613 709.904 566.39C711.312 570.162 713.634 573.499 716.754 576.128C719.823 578.761 715.987 583.764 712.875 581.114C710.367 578.966 708.314 576.574 706.681 573.9C705.222 576.642 703.62 579.299 701.801 581.867C703.478 589.042 702.715 595.87 698.711 602.45C696.622 605.92 691.645 602.019 693.725 598.571C696.499 593.991 696.952 588.961 695.84 583.918C695.753 583.882 695.688 583.856 695.602 583.82C692.542 588.232 689.349 592.538 686.034 596.769C683.527 599.965 678.532 596.107 681.048 592.89C684.931 587.956 688.658 582.908 692.144 577.709C692.282 577.006 692.576 576.292 693.07 575.584C693.318 575.23 693.556 574.897 693.782 574.535C693.299 574.538 692.795 574.533 692.299 574.506C692.151 574.496 692.013 574.464 691.904 574.419C690.39 575.39 688.474 575.614 686.722 574.765C684.19 573.595 682.921 570.285 684.244 567.69ZM696.058 571.041C697.178 569.122 698.168 567.149 699.068 565.089C698.681 564.676 698.197 564.375 697.687 564.14C697.637 564.752 697.47 565.342 697.177 565.93C696.24 567.773 695.303 569.615 694.357 571.479C694.928 571.385 695.495 571.239 696.058 571.041Z" fill="#313D5A"/>
<path d="M716.442 558.271C715.902 559.58 714.865 560.621 713.558 561.165C712.25 561.709 710.781 561.711 709.472 561.172C708.163 560.632 707.122 559.595 706.577 558.287C706.033 556.98 706.031 555.51 706.571 554.201C707.11 552.892 708.148 551.851 709.455 551.307C710.762 550.763 712.232 550.761 713.541 551.3C714.85 551.84 715.891 552.877 716.435 554.185C716.979 555.492 716.982 556.962 716.442 558.271Z" fill="#313D5A"/>
</g>
<defs>
<clipPath id="clip0_542_8041">
<rect width="59.9424" height="59.9424" fill="white" transform="matrix(-0.924528 -0.381114 -0.381114 0.924528 739.263 559.371)"/>
</clipPath>
</defs>
</svg>
