<svg width="65" height="65" viewBox="0 0 65 65" fill="none" xmlns="http://www.w3.org/2000/svg">
<path d="M0.173562 31.8518C0.0777066 31.9477 0.0777064 32.1031 0.173562 32.199L9.88785 41.9132C12.7635 44.7889 17.4259 44.7889 20.3016 41.9132L24.9826 37.2323C27.8582 34.3566 27.8582 29.6942 24.9826 26.8185L20.3016 22.1375C17.4259 19.2619 12.7635 19.2619 9.88786 22.1375L0.173562 31.8518Z" fill="#EAEAEA"/>
<path d="M22.1375 9.88786C19.2619 12.7635 19.2619 17.4259 22.1375 20.3016L26.8185 24.9826C29.6942 27.8582 34.3566 27.8583 37.2322 24.9826L41.9132 20.3016C44.7889 17.4259 44.7889 12.7635 41.9132 9.88786L32.1989 0.17357C32.1031 0.0777144 31.9477 0.0777144 31.8518 0.173571L22.1375 9.88786Z" fill="#CBC5EA"/>
<path d="M22.5457 43.7492C19.6701 46.6249 19.6701 51.2872 22.5457 54.1629L32.26 63.8772C32.3559 63.9731 32.5113 63.9731 32.6071 63.8772L42.1175 54.3669C44.9931 51.4912 44.9931 46.8288 42.1175 43.9532L37.4365 39.2722C34.5608 36.3965 29.8984 36.3965 27.0227 39.2722L22.5457 43.7492Z" fill="#73628A"/>
<path d="M39.326 27.1213C36.4503 29.9969 36.4503 34.6593 39.326 37.535L43.9361 42.1451C46.8117 45.0207 51.4741 45.0207 54.3498 42.1451L63.9932 32.5017C64.089 32.4058 64.089 32.2504 63.9932 32.1546L54.3498 22.5112C51.4741 19.6355 46.8117 19.6355 43.9361 22.5112L39.326 27.1213Z" fill="#313D5A"/>
</svg>
