<svg width="61" height="61" viewBox="0 0 61 61" fill="none" xmlns="http://www.w3.org/2000/svg">
<circle cx="30.5" cy="30.5" r="30.5" fill="#EAEAEA"/>
<path d="M32.5 15C32.5 14.1716 31.8284 13.5 31 13.5C30.1716 13.5 29.5 14.1716 29.5 15L32.5 15ZM29.9393 46.0607C30.5251 46.6464 31.4749 46.6464 32.0607 46.0607L41.6066 36.5147C42.1924 35.9289 42.1924 34.9792 41.6066 34.3934C41.0208 33.8076 40.0711 33.8076 39.4853 34.3934L31 42.8787L22.5147 34.3934C21.9289 33.8076 20.9792 33.8076 20.3934 34.3934C19.8076 34.9792 19.8076 35.9289 20.3934 36.5147L29.9393 46.0607ZM29.5 15L29.5 45L32.5 45L32.5 15L29.5 15Z" fill="black"/>
</svg>
