<svg width="28" height="28" viewBox="0 0 28 28" fill="none" xmlns="http://www.w3.org/2000/svg">
<path d="M27.4316 13.6337C27.4726 13.6747 27.4726 13.7413 27.4316 13.7823L23.2737 17.9401C22.0429 19.171 20.0473 19.171 18.8165 17.9401L16.813 15.9366C15.5822 14.7058 15.5822 12.7102 16.813 11.4794L18.8165 9.47587C20.0473 8.24505 22.0429 8.24505 23.2737 9.47587L27.4316 13.6337Z" fill="#EAEAEA"/>
<path d="M18.0292 4.23282C19.26 5.46364 19.26 7.45921 18.0292 8.69003L16.0257 10.6936C14.7949 11.9244 12.7993 11.9244 11.5685 10.6936L9.56494 8.69003C8.33411 7.45921 8.33411 5.46364 9.56493 4.23282L13.7228 0.07497C13.7638 0.0339425 13.8303 0.0339426 13.8714 0.07497L18.0292 4.23282Z" fill="#CBC5EA"/>
<path d="M17.8554 18.726C19.0862 19.9568 19.0862 21.9524 17.8554 23.1832L13.6975 27.341C13.6565 27.3821 13.59 27.3821 13.549 27.341L9.47841 23.2705C8.24759 22.0397 8.24759 20.0441 9.47841 18.8133L11.4819 16.8098C12.7128 15.5789 14.7083 15.5789 15.9392 16.8098L17.8554 18.726Z" fill="#73628A"/>
<path d="M10.6728 11.6098C11.9036 12.8406 11.9036 14.8362 10.6728 16.067L8.69959 18.0402C7.46876 19.271 5.4732 19.271 4.24237 18.0402L0.11488 13.9127C0.0738527 13.8716 0.0738527 13.8051 0.11488 13.7641L4.24237 9.6366C5.4732 8.40577 7.46876 8.40577 8.69959 9.6366L10.6728 11.6098Z" fill="#313D5A"/>
</svg>
